<?xml version="1.0" encoding="utf-8"?>
<!-- Generator: Adobe Illustrator 16.0.3, SVG Export Plug-In . SVG Version: 6.00 Build 0)  -->
<svg version="1.2" baseProfile="tiny" id="Ebene_1" xmlns="http://www.w3.org/2000/svg" xmlns:xlink="http://www.w3.org/1999/xlink"
	 x="0px" y="0px" width="595px" height="623px" viewBox="0 0 595 623" xml:space="preserve">
<path fill-rule="evenodd" fill="#E4003A" d="M45.708,230.948c11.016,3.528,22.752-2.448,26.352-13.464
	c3.528-10.944-2.448-22.68-13.392-26.28c-11.016-3.528-22.752,2.448-26.28,13.464C28.788,215.612,34.764,227.348,45.708,230.948z"/>
<circle fill-rule="evenodd" fill="#00305D" cx="41.712" cy="344.096" r="10.825"/>
<path fill-rule="evenodd" fill="#00305D" d="M99.204,476.396c4.896-3.528,5.904-10.297,2.448-15.12
	c-3.528-4.824-10.296-5.904-15.12-2.376c-4.824,3.456-5.904,10.224-2.376,15.048C87.612,478.844,94.38,479.853,99.204,476.396z"/>
<path fill-rule="evenodd" fill="#00305D" d="M204.18,559.34c2.736-5.328,0.576-11.808-4.68-14.544
	c-5.328-2.735-11.88-0.576-14.616,4.752c-2.664,5.328-0.576,11.809,4.752,14.544C194.964,566.828,201.444,564.668,204.18,559.34z"/>
<path fill-rule="evenodd" fill="#00305D" d="M335.076,585.692c0-6.049-4.824-10.873-10.801-10.873
	c-5.976,0-10.799,4.824-10.799,10.873c0,5.976,4.823,10.8,10.799,10.8C330.252,596.492,335.076,591.668,335.076,585.692z"/>
<path fill-rule="evenodd" fill="#00305D" d="M162.852,65.996L158.1,70.1l20.592,24.12c5.76,6.768,7.056,13.176,4.248,20.52
	c-1.512,3.672-3.888,6.984-6.984,9.648c-9.216,7.848-21.168,7.488-28.224-0.792L125.7,97.676l-4.752,4.032l-2.016-2.304
	l15.048-12.816l2.016,2.304l-4.752,4.032L151.62,116.9c6.552,7.632,15.336,8.784,22.32,2.808c7.272-6.12,7.776-15.408,1.296-23.04
	L154.86,72.836l-4.752,4.032l-1.944-2.376l12.672-10.8L162.852,65.996z"/>
<path fill-rule="evenodd" fill="#00305D" d="M236.652,84.932l-16.632,8.784l-1.44-2.736l5.544-2.952L212.676,66.5
	c-2.016-3.888-5.328-5.256-8.568-3.528c-3.168,1.656-4.248,4.032-6.768,14.76l10.152,19.152l5.616-3.024l1.44,2.736l-16.704,8.856
	l-1.44-2.736l5.544-2.952L187.98,73.268l-6.408,3.384l-1.08-1.944l9.072-8.496l1.368-0.72l4.32,8.28
	c2.16-9.288,4.248-12.96,8.928-15.48c5.472-2.88,10.728-1.152,13.752,4.536l11.736,22.248l5.544-2.88L236.652,84.932z"/>
<path fill-rule="evenodd" fill="#00305D" d="M231.18,27.116c2.376-0.864,4.824,0.36,5.616,2.664
	c0.792,2.304-0.432,4.752-2.808,5.544c-2.232,0.792-4.68-0.36-5.472-2.736C227.724,30.284,228.876,27.836,231.18,27.116
	L231.18,27.116z M259.044,77.948l-17.928,6.12l-1.008-2.88l6.048-2.016l-9.72-28.368l-6.84,2.376l-0.792-2.16l10.296-6.984
	l1.44-0.432l11.52,33.48l5.976-2.016L259.044,77.948z"/>
<polygon fill-rule="evenodd" fill="#00305D" points="289.572,35.828 286.116,36.476 279.924,74.204 278.268,74.492 256.956,42.524 
	253.5,43.1 252.924,40.076 268.692,36.908 269.34,39.932 263.652,41.084 278.196,63.116 282.444,37.268 276.972,38.348 
	276.396,35.324 288.924,32.804 "/>
<path fill-rule="evenodd" fill="#00305D" d="M328.309,61.82c-4.536,3.167-6.769,4.104-10.08,4.248
	c-7.92,0.36-13.608-6.696-14.04-17.064v-0.936l26.063-1.08l-0.071-2.232c-0.361-9-6.769-14.904-15.769-14.472
	c-10.224,0.432-17.208,9.216-16.704,20.808c0.432,11.448,8.064,19.368,18.504,18.864c4.824-0.144,7.704-1.296,13.824-5.112
	L328.309,61.82L328.309,61.82z M304.116,44.756c0.504-6.552,4.464-10.8,10.512-11.016c4.824-0.216,8.424,3.24,8.641,8.208
	l0.071,2.016L304.116,44.756z"/>
<path fill-rule="evenodd" fill="#00305D" d="M355.668,70.748L335.22,68.66l0.288-3.024l6.336,0.576l3.024-29.736l-7.2-0.792
	l0.216-2.232l12.24-1.944l1.512,0.144L350.7,40.94c6.768-7.056,9.072-8.64,12.023-8.352c1.008,0.144,1.8,0.432,2.304,1.008
	l2.305,2.521l-5.4,5.256c-1.512-1.728-2.592-2.592-3.384-2.664c-1.512-0.144-3.168,1.08-8.279,6.192l-2.232,21.96l7.92,0.864
	L355.668,70.748z"/>
<path fill-rule="evenodd" fill="#00305D" d="M369.061,73.7l-3.168-0.792l2.735-11.521l3.744,0.937l-0.576,2.16
	c-0.792,3.528,2.952,7.704,7.992,8.856c4.464,1.08,8.352-0.432,9.144-3.672s-1.079-5.544-8.784-10.944
	c-6.983-4.896-9.071-8.496-7.775-13.608c1.512-6.336,7.632-9.36,15.048-7.56c3.6,0.864,6.12,2.448,7.92,4.824l1.225-2.808
	l3.455,0.864l-4.751,11.16l-3.456-0.864c0.503-0.792,0.936-1.8,1.08-2.52c0.791-3.168-2.232-6.624-6.624-7.704
	c-4.177-1.008-7.489,0.576-8.353,4.104c-0.792,3.456-0.359,4.032,8.496,10.296c7.128,5.112,9,8.352,7.776,13.536
	c-1.585,6.48-7.704,9.792-14.904,8.064c-4.536-1.081-7.704-2.952-9.505-5.76L369.061,73.7z"/>
<path fill-rule="evenodd" fill="#00305D" d="M426.012,30.14c2.304,0.864,3.385,3.312,2.593,5.616
	c-0.937,2.304-3.385,3.456-5.688,2.592c-2.305-0.864-3.384-3.384-2.52-5.688C421.26,30.428,423.708,29.276,426.012,30.14
	L426.012,30.14z M414.996,87.092l-17.712-6.696l1.08-2.88l5.976,2.232l10.513-28.008l-6.769-2.592l0.792-2.088l12.384,1.224
	l1.44,0.504L410.172,81.98l5.904,2.232L414.996,87.092z"/>
<path fill-rule="evenodd" fill="#00305D" d="M439.908,95.444c-5.544,1.152-7.344,1.08-10.08-0.288
	c-4.32-2.16-5.616-6.192-3.313-10.729l11.448-22.968l-6.479-3.24l1.008-2.016l7.344,1.584l5.112-10.224l5.327,2.664l-5.256,10.44
	l9.288,4.68l-1.728,3.384l-9.216-4.608l-11.16,22.32c-1.439,2.808-1.009,4.32,1.439,5.616c1.585,0.72,2.736,0.936,5.977,0.72
	L439.908,95.444z"/>
<path fill-rule="evenodd" fill="#00305D" d="M463.164,105.02c-4.824,0.648-7.271,0.36-9.504-1.152
	c-2.881-1.944-3.456-5.112-1.44-7.992l2.376-3.384l13.536,5.256L463.164,105.02L463.164,105.02z M478.644,66.284
	c1.368-1.872,0.937-4.536-1.008-5.832c-1.944-1.296-4.464-0.792-5.831,1.152c-1.297,1.872-0.865,4.464,1.079,5.76
	C474.828,68.732,477.42,68.156,478.644,66.284L478.644,66.284z M471.156,115.748l-5.256-3.6l14.472-21.168
	c3.096-4.464,1.224-10.224-4.824-14.4c-6.264-4.248-12.888-4.464-15.624-0.504c-0.504,0.792-0.648,1.152-0.72,2.304l7.344,2.376
	l2.231-3.24c2.664,0.36,3.673,0.792,5.04,1.728c2.737,1.872,3.456,5.256,1.584,7.992l-5.327,7.776l-13.608-5.4
	c-3.815-1.512-8.064-0.144-10.44,3.384c-3.167,4.536-1.943,10.224,2.809,13.536c3.672,2.448,7.271,2.808,12.6,1.224
	c-0.216,0.288-0.359,0.504-0.504,0.72c-1.728,2.52-1.512,4.896,0.576,6.336c0.576,0.36,1.656,0.792,2.736,1.152l5.616,1.728
	L471.156,115.748L471.156,115.748z M490.813,74.636c-1.297,1.873-3.889,2.376-5.761,1.081c-1.944-1.296-2.376-3.888-1.079-5.76
	c1.296-1.944,3.888-2.448,5.832-1.152C491.676,70.1,492.107,72.764,490.813,74.636z"/>
<path fill-rule="evenodd" fill="#00305D" d="M489.443,133.028c-5.615-0.288-7.344-0.864-9.647-2.88
	c-3.601-3.24-3.815-7.416-0.432-11.232L496.5,99.764l-5.4-4.824l1.512-1.656l6.624,3.456l7.633-8.568l4.464,3.96l-7.775,8.784
	l7.632,6.84l-2.521,2.88l-7.704-6.912l-16.632,18.648c-2.088,2.376-2.088,3.96,0,5.76c1.296,1.152,2.304,1.656,5.544,2.304
	L489.443,133.028z"/>
<path fill-rule="evenodd" fill="#00305D" d="M98.412,345.14l-3.96-20.159l3.024-0.576l1.152,6.119l47.88-9.432l-1.224-6.119
	l3.024-0.577l4.608,23.329c1.872,9.432-3.24,17.279-12.384,19.08c-9.144,1.799-17.784-4.609-19.728-14.688
	c-0.36-1.584-0.432-2.448-0.432-4.681l2.88-0.575c-0.072,1.151,0,1.512,0.144,2.231c1.44,7.056,8.424,11.664,15.696,10.225
	c6.552-1.225,10.872-6.624,9.864-12.024l-1.8-8.856l-47.088,9.289l1.368,6.911L98.412,345.14z"/>
<path fill-rule="evenodd" fill="#00305D" d="M112.74,393.452c4.104,9.216,15.552,13.032,25.56,8.567
	c10.08-4.463,14.832-15.552,10.728-24.768s-15.552-13.031-25.56-8.567C113.46,373.221,108.636,384.235,112.74,393.452
	L112.74,393.452z M145.86,378.691c2.52,5.688-2.016,13.104-10.44,16.849s-16.992,2.16-19.512-3.528
	c-2.52-5.688,2.088-13.031,10.44-16.776C134.844,371.492,143.34,373.004,145.86,378.691z"/>
<path fill-rule="evenodd" fill="#00305D" d="M144.42,438.235c-5.4-1.655-6.984-2.592-8.712-5.184
	c-2.736-3.96-1.944-8.063,2.232-10.944l21.168-14.543l-4.104-5.977l1.872-1.296l5.616,4.896l9.432-6.479l3.384,4.896l-9.648,6.696
	l5.904,8.496l-3.168,2.16l-5.904-8.496l-20.52,14.184c-2.592,1.8-2.952,3.313-1.368,5.616c1.008,1.44,1.872,2.088,4.824,3.528
	L144.42,438.235z"/>
<path fill-rule="evenodd" fill="#00305D" d="M151.332,452.996l-2.304-2.376l8.496-8.208l2.664,2.735l-1.656,1.584
	c-2.52,2.449-1.584,7.993,2.016,11.736c3.168,3.24,7.272,4.032,9.648,1.728c2.376-2.303,2.088-5.256-1.512-13.896
	c-3.312-7.92-3.096-12.096,0.648-15.696c4.68-4.535,11.52-3.815,16.848,1.656c2.52,2.664,3.816,5.328,4.104,8.352l2.448-1.728
	l2.52,2.521l-10.008,6.912l-2.52-2.592c0.936-0.36,1.8-1.009,2.376-1.513c2.304-2.231,1.656-6.84-1.512-10.008
	c-3.024-3.097-6.624-3.528-9.216-1.08c-2.592,2.52-2.448,3.24,1.584,13.319c3.384,8.064,3.168,11.809-0.648,15.553
	c-4.824,4.607-11.736,4.176-16.848-1.152c-3.24-3.384-4.896-6.623-4.968-9.936L151.332,452.996z"/>
<path fill-rule="evenodd" fill="#00305D" d="M215.628,498.428l-6.048-4.104l31.824-46.872l-1.296-0.864l-11.736-4.031l-1.296,1.8
	l5.976,4.104l-10.728,15.912c-1.728-3.168-2.736-4.32-5.04-5.904c-9.072-6.12-21.528-3.456-27.936,6.048
	c-5.976,8.856-5.04,19.585,2.088,24.48c3.528,2.376,6.768,2.735,13.104,1.512l-3.24,4.824l1.296,0.937l11.736,4.104L215.628,498.428
	L215.628,498.428z M203.748,487.484c-3.672,0.216-4.968-0.072-7.128-1.512c-5.688-3.816-5.904-10.729-0.648-18.505
	c5.328-7.848,13.392-10.151,20.088-5.615c4.032,2.735,4.464,5.111,1.584,9.432l-10.872,15.911
	C205.404,487.34,204.396,487.412,203.748,487.484z"/>
<path fill-rule="evenodd" fill="#00305D" d="M256.668,516.284l-5.904-2.376l9.432-23.761c2.088-5.111-1.08-10.295-7.848-13.031
	c-7.056-2.808-13.536-1.513-15.336,2.952c-0.36,0.863-0.432,1.296-0.216,2.447l7.632,0.72l1.512-3.743
	c2.664-0.145,3.744,0,5.328,0.576c3.024,1.296,4.464,4.464,3.24,7.488l-3.456,8.783l-14.4-2.304
	c-4.104-0.576-7.92,1.656-9.504,5.544c-2.088,5.185,0.432,10.512,5.76,12.601c4.104,1.655,7.632,1.224,12.528-1.513
	c-0.144,0.288-0.216,0.504-0.36,0.792c-1.08,2.809-0.432,5.112,2.016,6.048c0.576,0.216,1.8,0.432,2.88,0.504l5.832,0.432
	L256.668,516.284L256.668,516.284z M246.516,507.644c-4.608,1.656-6.984,1.944-9.504,0.937c-3.24-1.296-4.464-4.248-3.168-7.488
	l1.512-3.888l14.472,2.231L246.516,507.644z"/>
<path fill-rule="evenodd" fill="#00305D" d="M336.3,532.124l-18.72-1.8l0.359-3.097l6.265,0.648l2.376-24.265
	c0.432-4.464-1.584-7.271-5.184-7.631c-2.736-0.288-5.04,0.792-8.929,4.247l-4.896,4.249l-2.016,21.527l6.119,0.648l-0.287,3.023
	l-18.433-1.8l0.288-3.096l6.048,0.647l2.376-24.264c0.432-4.392-1.584-7.345-4.968-7.704c-3.6-0.359-5.832,1.008-13.824,8.567
	l-2.088,21.529l6.264,0.647l-0.288,3.096l-18.792-1.872l0.288-3.096l6.264,0.648l2.952-29.809l-7.2-0.72l0.216-2.232l12.24-2.088
	l1.512,0.216l-0.936,9.217c6.912-6.553,10.728-8.496,15.768-7.921c5.904,0.576,8.784,3.96,8.928,10.368
	c6.912-6.552,10.728-8.496,15.912-7.992c6.12,0.648,9.576,4.969,8.928,11.305l-2.447,25.128l6.191,0.647L336.3,532.124z"/>
<path fill-rule="evenodd" fill="#00305D" d="M431.628,347.084V279.26h-10.944v67.824H431.628L431.628,347.084z M460.788,347.084
	V279.26h-20.88v67.824H460.788L460.788,347.084z M419.172,392.731h62.352v-36.504h-62.352V392.731L419.172,392.731z
	 M381.156,374.588c0,7.56,12.527,14.256,31.392,18.072v-36.217C395.772,359.9,381.156,366.235,381.156,374.588L381.156,374.588z
	 M356.748,279.188h-10.872v67.896h10.872V279.188L356.748,279.188z M368.195,347.084h10.873v-67.896h-10.873V347.084
	L368.195,347.084z M390.516,347.084h10.873v-67.896h-10.873V347.084L390.516,347.084z M412.548,401.588v22.752
	c-29.88-4.392-51.264-13.968-55.8-25.416h-22.392V263.492h78.191v83.592c-32.688,4.607-55.584,15.336-55.44,27.359
	C357.324,388.195,385.548,397.916,412.548,401.588L412.548,401.588z M480.012,347.084V279.26h-10.943v67.824H480.012
	L480.012,347.084z M519.54,374.588c0-8.353-14.616-14.688-31.393-18.145v36.217C507.012,388.844,519.54,382.147,519.54,374.588
	L519.54,374.588z M499.308,347.084h10.944v-67.896h-10.944V347.084L499.308,347.084z M521.557,347.084H532.5v-67.896h-10.943
	V347.084L521.557,347.084z M543.948,347.084h10.871v-67.896h-10.871V347.084L543.948,347.084z M488.147,263.492h78.192v135.432
	h-22.392c-4.536,11.448-25.921,21.024-55.801,25.416v-22.752c27-3.672,55.296-13.393,55.44-27.145
	c0.144-12.023-22.824-22.752-55.44-27.359V263.492L488.147,263.492z M334.356,248.228c-0.433-1.224-0.721-2.88-0.721-4.68
	c0-3.6,1.008-6.48,2.232-6.48c1.151,0,2.159,2.88,2.159,6.48c0,1.8-0.287,3.528-0.719,4.68h16.92
	c-0.433-1.152-0.721-2.88-0.721-4.68c0-3.6,1.008-6.48,2.16-6.48c1.225,0,2.232,2.88,2.232,6.48c0,1.8-0.289,3.528-0.721,4.68
	h16.776c-0.433-1.152-0.647-2.88-0.647-4.68c0-3.6,0.936-6.48,2.159-6.48c1.152,0,2.16,2.88,2.16,6.48c0,1.8-0.288,3.528-0.72,4.68
	h16.775c-0.432-1.152-0.72-2.88-0.72-4.68c0-3.6,1.009-6.48,2.16-6.48c1.224,0,2.232,2.88,2.232,6.48c0,1.8-0.288,3.528-0.721,4.68
	h15.912v-23.976h5.4c0.647-1.584,1.584-4.608,1.512-7.992c-0.576-17.28,8.784-31.608,29.305-32.328
	c-0.361-1.152-0.648-2.736-0.648-4.464c0-3.528,1.008-6.408,2.231-6.408c1.225,0,2.232,2.88,2.232,6.408
	c0,1.728-0.288,3.313-0.648,4.464c20.521,0.72,29.809,15.048,29.304,32.328c-0.144,3.384,0.864,6.408,1.513,7.992h5.399v23.976
	h15.913c-0.433-1.152-0.721-2.88-0.721-4.68c0-3.6,1.008-6.48,2.232-6.48c1.151,0,2.159,2.88,2.159,6.48
	c0,1.8-0.288,3.528-0.72,4.68h16.776c-0.432-1.152-0.72-2.88-0.72-4.68c0-3.6,0.936-6.48,2.231-6.48c1.152,0,2.16,2.88,2.16,6.48
	c0,1.8-0.288,3.528-0.72,4.68h16.775c-0.432-1.152-0.72-2.88-0.72-4.68c0-3.6,1.009-6.48,2.231-6.48c1.152,0,2.161,2.88,2.161,6.48
	c0,1.8-0.288,3.528-0.721,4.68h16.921c-0.433-1.152-0.721-2.88-0.721-4.68c0-3.6,1.008-6.48,2.232-6.48c1.151,0,2.16,2.88,2.16,6.48
	c0,1.8-0.288,3.456-0.793,4.68v9h-78.12v6.12h-75.6v-6.12h75.6l-37.8-20.304l-37.8,20.304h-78.191V248.228z"/>
</svg>
