<?xml version="1.0" standalone="no"?>
<!DOCTYPE svg PUBLIC "-//W3C//DTD SVG 1.1//EN" "http://www.w3.org/Graphics/SVG/1.1/DTD/svg11.dtd" >
<svg>
<metadata>
Created by FontForge 20090622 at Fri Sep 22 11:46:45 2017
 By deploy user
&#194;&#169; Luc as  de Groot 1994
</metadata>
<defs>
<font id="TheSansPlain" horiz-adv-x="575" >
  <font-face 
    font-family="TheSans"
    font-weight="400"
    font-stretch="normal"
    units-per-em="1000"
    panose-1="0 0 4 0 0 0 0 0 0 0"
    ascent="800"
    descent="-200"
    x-height="497"
    cap-height="675"
    bbox="-62 -433 1757.29 1169"
    underline-thickness="20"
    underline-position="-140"
    unicode-range="U+0020-U+F002"
  />
<missing-glyph horiz-adv-x="500" 
d="M63 0v749h375v-749h-375zM125 63h250v624h-250v-624z" />
    <glyph glyph-name=".notdef" horiz-adv-x="500" 
d="M63 0v749h375v-749h-375zM125 63h250v624h-250v-624z" />
    <glyph glyph-name=".null" horiz-adv-x="0" 
 />
    <glyph glyph-name="nonmarkingreturn" horiz-adv-x="218" 
 />
    <glyph glyph-name="space" unicode=" " horiz-adv-x="218" 
 />
    <glyph glyph-name="exclam" unicode="!" horiz-adv-x="301" 
d="M204 707l-15 -539h-76l-16 539h107zM210 50q0 -25 -17.5 -42t-42.5 -17t-42.5 17t-17.5 42t17.5 42t42.5 17t42.5 -17t17.5 -42z" />
    <glyph glyph-name="quotedbl" unicode="&#x22;" horiz-adv-x="366" 
d="M147 739l-15 -230h-66l-14 230h95zM314 739l-14 -230h-67l-14 230h95z" />
    <glyph glyph-name="numbersign" unicode="#" horiz-adv-x="682" 
d="M651 441h-150l-20 -186h143v-64h-150l-20 -191h-77l20 191h-146l-20 -191h-77l20 191h-145v64h152l20 186h-144v64h151l18 170h76l-18 -170h146l18 170h77l-18 -170h144v-64zM424 441h-146l-20 -186h146z" />
    <glyph glyph-name="dollar" unicode="$" horiz-adv-x="489" 
d="M435 178q0 -69 -44.5 -118.5t-123.5 -64.5v-130h-67v126q-71 2 -124 15l6 84q59 -23 130 -23q129 0 129 99q0 54 -73 89l-137 63q-73 48 -73 134q0 65 44 111t116 57v105h67v-101q60 -2 106 -12l-6 -80q-55 18 -113 18q-123 0 -123 -87q0 -52 74 -88l138 -64
q74 -49 74 -133z" />
    <glyph glyph-name="percent" unicode="%" horiz-adv-x="799" 
d="M745 159q0 -79 -48.5 -126.5t-116.5 -47.5q-69 0 -109 38q-43 42 -43 122t50 128q45 44 112 44q155 0 155 -158zM662 652l-476 -675l-64 46l476 675zM360 532q0 -79 -48.5 -126.5t-116.5 -47.5q-69 0 -109 38q-43 42 -43 122t50 128q45 44 112 44q155 0 155 -158z
M665 153q0 99 -79 99q-34 0 -56 -27.5t-22 -72.5q0 -102 76 -102q36 0 58.5 28t22.5 75zM280 526q0 99 -79 99q-34 0 -56 -27.5t-22 -72.5q0 -102 76 -102q36 0 58.5 28t22.5 75z" />
    <glyph glyph-name="ampersand" unicode="&#x26;" horiz-adv-x="795" 
d="M739 50l-58 -70q-88 60 -142 106q-111 -96 -264 -96q-105 0 -163 56q-56 53 -56 140q0 64 39 120q31 44 100 99q-93 108 -93 182q0 65 47.5 109t130.5 44q76 0 118 -37.5t42 -98.5q0 -101 -125 -197q106 -114 221 -206v-1q75 108 68 250h90q5 -174 -92 -299
q73 -58 137 -101zM350 595q0 75 -78 75q-36 0 -58.5 -21.5t-22.5 -56.5q0 -49 73 -134q86 71 86 137zM476 136q-133 109 -229 215q-99 -79 -99 -154q0 -55 39.5 -93t103.5 -38q106 0 185 70z" />
    <glyph glyph-name="quotesingle" unicode="'" horiz-adv-x="199" 
d="M147 739l-15 -230h-66l-14 230h95z" />
    <glyph glyph-name="parenleft" unicode="(" horiz-adv-x="303" 
d="M293 -193h-86q-137 219 -137 477t138 482h83q-133 -217 -133 -477q0 -265 135 -482z" />
    <glyph glyph-name="parenright" unicode=")" horiz-adv-x="303" 
d="M238 285q0 -259 -137 -478h-85q134 216 134 481q0 260 -134 478h85q137 -222 137 -481z" />
    <glyph glyph-name="asterisk" unicode="*" horiz-adv-x="374" 
d="M330 535l-34 -58l-90 66l11 -112h-67l11 112l-90 -66l-33 58l103 45l-103 46l34 58l90 -66l-11 112h67l-12 -112l91 66l33 -58l-103 -45z" />
    <glyph glyph-name="plus" unicode="+" horiz-adv-x="563" 
d="M536 220h-213v-220h-85v220h-211v75h211v219h85v-219h213v-75z" />
    <glyph glyph-name="comma" unicode="," horiz-adv-x="228" 
d="M112 113q27 0 44.5 -20.5t17.5 -55.5q0 -91 -110 -191l-38 34q56 61 56 105q0 17 -12.5 39.5t-12.5 33.5q0 22 15.5 38.5t39.5 16.5z" />
    <glyph glyph-name="hyphen" unicode="-" horiz-adv-x="330" 
d="M283 215h-236v72h236v-72z" />
    <glyph glyph-name="period" unicode="." horiz-adv-x="228" 
d="M176 53q0 -25 -18 -43.5t-44 -18.5q-25 0 -43.5 18.5t-18.5 43.5q0 26 18.5 44t43.5 18q26 0 44 -18t18 -44z" />
    <glyph glyph-name="slash" unicode="/" horiz-adv-x="419" 
d="M385 675l-257 -675h-88l258 675h87z" />
    <glyph glyph-name="zero" unicode="0" horiz-adv-x="613" 
d="M562 265q0 -125 -79 -202q-75 -73 -187 -73q-111 0 -175 63q-70 69 -70 199q0 122 79 199q75 72 184 72q122 0 188 -75q60 -68 60 -183zM471 259q0 84 -40 134q-43 54 -122 54q-71 0 -119 -51t-48 -136q0 -86 39 -137q42 -56 123 -56q70 0 118.5 53.5t48.5 138.5z" />
    <glyph glyph-name="one" unicode="1" horiz-adv-x="338" 
d="M246 0h-93v428l-113 -48l-15 77l148 57h73v-514z" />
    <glyph glyph-name="two" unicode="2" horiz-adv-x="482" 
d="M432 0h-379v72l132 111q71 59 93 87q33 39 33 80q0 43 -28 70t-79 27q-65 0 -126 -38l-13 78q75 36 158 36q89 0 139 -44q47 -42 47 -113q0 -53 -32 -102q-30 -44 -96 -99l-107 -88q64 4 258 4v-81z" />
    <glyph glyph-name="three" unicode="3" horiz-adv-x="461" 
d="M406 31q0 -99 -71 -162q-75 -66 -202 -66q-46 0 -88 11l9 80q45 -13 87 -13q80 0 126 40q42 37 42 98q0 129 -178 129q-24 0 -51 -3v72q216 0 216 130q0 46 -30 73t-82 27q-63 0 -118 -31l-9 77q70 28 143 28q94 0 145 -47q46 -43 46 -111q0 -56 -33 -100t-89 -66v-1
q63 -10 100 -55.5t37 -109.5z" />
    <glyph glyph-name="four" unicode="4" horiz-adv-x="544" 
d="M530 0h-120v-192h-89v192h-291l-14 74l278 441h116v-434h120v-81zM322 81v346h-1l-218 -347q57 1 219 1z" />
    <glyph glyph-name="five" unicode="5" horiz-adv-x="467" 
d="M417 43q0 -104 -81 -172t-206 -68q-37 0 -72 6l8 82q35 -7 71 -7q89 0 138 42q46 39 46 103t-48 103q-51 41 -141 41q-34 0 -54 -1v342h318v-88h-233v-177q121 0 189 -58q65 -56 65 -148z" />
    <glyph glyph-name="six" unicode="6" horiz-adv-x="582" 
d="M533 230q0 -105 -67 -172.5t-175 -67.5q-106 0 -165.5 76t-59.5 212q0 207 100 320q95 107 256 107q20 0 46 -2v-80q-30 5 -55 5q-201 0 -245 -229l-8 -39l1 -1q49 82 165 82q96 0 151.5 -57.5t55.5 -153.5zM437 217q0 68 -35 106.5t-96 38.5q-65 0 -103 -43
q-34 -38 -34 -94q0 -67 33 -110q36 -48 101 -48q61 0 97.5 42t36.5 108z" />
    <glyph glyph-name="seven" unicode="7" horiz-adv-x="459" 
d="M430 438q-130 -293 -207 -630h-102q83 334 209 620q-31 -2 -305 -2v88h405v-76z" />
    <glyph glyph-name="eight" unicode="8" horiz-adv-x="551" 
d="M493 179q0 -88 -65.5 -138.5t-162.5 -50.5q-99 0 -154 48t-55 125q0 62 45 114q30 35 94 77h-1q-128 74 -128 177q0 79 59 128.5t155 49.5q92 0 146 -45t54 -117q0 -98 -131 -180q68 -40 99 -74q45 -50 45 -114zM387 538q0 42 -29.5 69.5t-82.5 27.5t-84 -28t-31 -71
q0 -39 31 -71q27 -27 87 -61h1q59 37 83.5 67t24.5 67zM398 167q0 46 -36 84q-28 28 -95 65h-1q-114 -68 -114 -143q0 -48 33.5 -77.5t90.5 -29.5q52 0 87 27.5t35 73.5z" />
    <glyph glyph-name="nine" unicode="9" horiz-adv-x="582" 
d="M516 232q0 -208 -96.5 -318.5t-266.5 -110.5q-30 0 -60 6v83q34 -9 65 -9q201 0 249 212q3 13 8 51h-1q-53 -76 -160 -76q-95 0 -150 57.5t-55 154.5q0 104 66 172t172 68q105 0 164 -69q65 -75 65 -221zM413 281q0 74 -34 119q-37 46 -101 46q-59 0 -96.5 -43
t-37.5 -106q0 -70 34.5 -108t97.5 -38q60 0 100 40q37 37 37 90z" />
    <glyph glyph-name="colon" unicode=":" horiz-adv-x="257" 
d="M191 345q0 -25 -18 -43.5t-44 -18.5t-44.5 18t-18.5 44t18.5 44t44.5 18t44 -18t18 -44zM191 53q0 -25 -18 -43.5t-44 -18.5t-44.5 18t-18.5 44t18.5 44t44.5 18t44 -18t18 -44z" />
    <glyph glyph-name="semicolon" unicode=";" horiz-adv-x="257" 
d="M191 345q0 -25 -18 -43.5t-44 -18.5t-44.5 18t-18.5 44t18.5 44t44.5 18t44 -18t18 -44zM128 113q27 0 44.5 -21t17.5 -55q0 -91 -110 -191l-39 34q56 61 56 105q0 16 -12.5 39t-12.5 34q0 22 15.5 38.5t40.5 16.5z" />
    <glyph glyph-name="less" unicode="&#x3c;" horiz-adv-x="501" 
d="M430 28l-57 -61l-317 283l316 288l58 -58l-258 -229z" />
    <glyph glyph-name="equal" unicode="=" horiz-adv-x="586" 
d="M514 302h-443v74h443v-74zM514 131h-443v74h443v-74z" />
    <glyph glyph-name="greater" unicode="&#x3e;" horiz-adv-x="501" 
d="M444 256l-316 -288l-58 58l258 229l-258 223l57 61z" />
    <glyph glyph-name="question" unicode="?" horiz-adv-x="423" 
d="M362 517q0 -57 -40 -106l-76 -80q-40 -48 -40 -100q0 -29 11 -63h-88q-14 41 -14 76q0 57 38 107l72 76q39 42 39 80q0 49 -53.5 83.5t-138.5 39.5l12 82q127 -7 204 -64q74 -54 74 -131zM237 50q0 -25 -17.5 -42t-42.5 -17t-42.5 17t-17.5 42t17.5 42t42.5 17t42.5 -17
t17.5 -42z" />
    <glyph glyph-name="at" unicode="@" horiz-adv-x="833" 
d="M763 397q0 -112 -53.5 -169.5t-142.5 -57.5q-47 0 -71 23t-24 57q0 7 1 14h-2q-14 -36 -48 -63q-39 -31 -83 -31q-89 0 -89 117q0 99 51 163q55 68 150 68q53 0 111 -13l-31 -173q-4 -22 -4 -39q0 -58 53 -58q103 0 103 158q0 96 -57 158q-65 70 -185 70
q-124 0 -209 -86.5t-85 -219.5q0 -119 68 -190q71 -75 196 -75q77 0 146 23v-70q-64 -22 -156 -22q-155 0 -244.5 90t-89.5 237q0 164 112 274q110 107 266 107q148 0 235 -87q82 -81 82 -205zM483 454q-16 5 -49 5q-52 0 -83 -55q-26 -46 -26 -103q0 -64 35 -64q37 0 68 48
t47 129z" />
    <glyph glyph-name="A" unicode="A" horiz-adv-x="615" 
d="M606 0h-103l-56 158h-287l-56 -158h-94l246 675h102zM422 231l-88 241q-18 51 -30 101h-2q-12 -50 -31 -102l-87 -240h238z" />
    <glyph glyph-name="B" unicode="B" horiz-adv-x="570" 
d="M518 202q0 -79 -51 -133q-69 -72 -210 -72q-23 0 -76 1q-73 2 -96 2v675q147 3 199 3q219 0 219 -162q0 -53 -33 -96.5t-88 -60.5v-2q67 -11 103 -57q33 -41 33 -98zM408 501q0 103 -140 103q-37 0 -91 -2v-218q19 -1 61 -1q170 0 170 118zM422 199q0 115 -182 115
q-47 0 -63 -1v-236q28 -5 86 -5q79 0 121 36q38 33 38 91z" />
    <glyph glyph-name="C" unicode="C" horiz-adv-x="583" 
d="M536 26q-83 -34 -183 -34q-156 0 -235 93q-72 84 -72 235q0 163 80 258q86 103 250 103q73 0 153 -20l-10 -84q-78 24 -153 24q-110 0 -168 -77q-52 -71 -52 -189q0 -261 229 -261q83 0 151 34z" />
    <glyph glyph-name="D" unicode="D" horiz-adv-x="678" 
d="M632 345q0 -169 -105 -261q-100 -88 -271 -88q-36 0 -92 2t-79 2v674q208 4 202 4q345 0 345 -333zM535 339q0 264 -257 264q-26 0 -101 -3v-520q38 -6 89 -6q124 0 194 64q75 69 75 201z" />
    <glyph glyph-name="E" unicode="E" horiz-adv-x="501" 
d="M432 0h-347v675h347v-76h-255v-214h243v-74h-243v-234h255v-77z" />
    <glyph glyph-name="F" unicode="F" horiz-adv-x="469" 
d="M429 599h-252v-219h239v-74h-239v-306h-92v675h344v-76z" />
    <glyph glyph-name="G" unicode="G" horiz-adv-x="682" 
d="M601 30q-105 -39 -223 -39q-154 0 -244.5 88.5t-90.5 244.5q0 158 97 258q101 102 268 102q93 0 185 -29l-14 -86q-88 36 -180 36q-110 0 -181 -67q-77 -74 -77 -203q0 -125 67.5 -194.5t182.5 -69.5q60 0 119 18v255h91v-314z" />
    <glyph glyph-name="H" unicode="H" horiz-adv-x="698" 
d="M613 0h-92v311h-344v-311h-92v675h92v-286h344v286h92v-675z" />
    <glyph glyph-name="I" unicode="I" horiz-adv-x="262" 
d="M177 0h-92v675h92v-675z" />
    <glyph glyph-name="J" unicode="J" horiz-adv-x="329" 
d="M245 176q0 -183 -169 -183q-41 0 -75 8v80q33 -11 69 -11q43 0 61 22q22 26 22 90v493h92v-499z" />
    <glyph glyph-name="K" unicode="K" horiz-adv-x="584" 
d="M569 0h-125l-267 334v-334h-92v675h92v-318l268 318h113l-285 -326z" />
    <glyph glyph-name="L" unicode="L" horiz-adv-x="426" 
d="M419 0h-334v675h92v-596h242v-79z" />
    <glyph glyph-name="M" unicode="M" horiz-adv-x="889" 
d="M841 0h-97l-57 390q-14 95 -21 166h-2q-15 -67 -33 -122l-145 -434h-98l-137 405q-34 99 -43 151h-1q-3 -44 -19 -175l-46 -381h-94l99 675h113l142 -425q28 -84 38 -134h2q13 60 36 128l147 431h114z" />
    <glyph glyph-name="N" unicode="N" horiz-adv-x="707" 
d="M622 0h-120l-257 418q-42 68 -77 140q7 -126 7 -341v-217h-90v675h121l251 -405q37 -60 83 -148q-7 145 -7 361v192h89v-675z" />
    <glyph glyph-name="O" unicode="O" horiz-adv-x="705" 
d="M663 345q0 -164 -94 -262q-89 -93 -226 -93q-148 0 -227 93q-74 89 -74 247q0 164 94 262q89 93 226 93q139 0 220 -88t81 -252zM565 334q0 129 -55.5 199.5t-157.5 70.5q-89 0 -148 -67q-64 -72 -64 -194q0 -125 52 -196q55 -75 159 -75q89 0 148 66q66 72 66 196z" />
    <glyph glyph-name="P" unicode="P" horiz-adv-x="524" 
d="M492 481q0 -99 -73 -162t-188 -63q-36 0 -54 2v-258h-92v675q100 4 166 4q115 0 178 -53.5t63 -144.5zM396 472q0 131 -155 131q-45 0 -64 -1v-266q24 -4 55 -4q75 1 119.5 38.5t44.5 101.5z" />
    <glyph glyph-name="Q" unicode="Q" horiz-adv-x="704" 
d="M663 345q0 -164 -94 -262q-89 -93 -226 -93q-148 0 -227 93q-74 89 -74 247q0 164 94 262q89 93 226 93q139 0 220 -88t81 -252zM703 -185q-35 -5 -69 -5v0q-55 0 -159 25q-90 21 -155 12v81q28 4 56 4q52 0 135.5 -19.5t133.5 -19.5q28 0 58 4v-82zM565 334
q0 129 -55.5 199.5t-157.5 70.5q-89 0 -148 -67q-64 -72 -64 -194q0 -125 52 -196q55 -75 159 -75q89 0 148 66q66 72 66 196z" />
    <glyph glyph-name="R" unicode="R" horiz-adv-x="553" 
d="M527 0h-117l-229 303h-4v-303h-92v675q61 4 169 4q229 0 229 -176q0 -84 -59 -135q-55 -49 -147 -55q40 -47 59 -72zM387 491q0 113 -149 113q-25 0 -61 -2v-230q20 -2 57 -2q72 0 112.5 33t40.5 88z" />
    <glyph glyph-name="S" unicode="S" horiz-adv-x="503" 
d="M451 199q0 -92 -68 -150t-184 -58q-74 0 -136 16l5 88q70 -25 139 -25q66 0 104 27q44 30 44 89q0 62 -79 99l-146 67q-79 50 -79 141q0 85 64 138t176 53q62 0 122 -12l-5 -82q-64 18 -122 18q-68 0 -104 -28.5t-36 -76.5q0 -59 79 -97l147 -67q79 -50 79 -140z" />
    <glyph glyph-name="T" unicode="T" horiz-adv-x="516" 
d="M499 598h-195v-598h-92v598h-194v77h481v-77z" />
    <glyph glyph-name="U" unicode="U" horiz-adv-x="693" 
d="M607 258q0 -268 -269 -268q-253 0 -253 237v448h92v-441q0 -79 33 -119q40 -49 134 -49q90 0 131.5 42.5t41.5 142.5v424h90v-417z" />
    <glyph glyph-name="V" unicode="V" horiz-adv-x="618" 
d="M605 675l-248 -675h-103l-243 675h102l151 -434q25 -71 44 -140h1q19 69 47 147l155 427h94z" />
    <glyph glyph-name="W" unicode="W" horiz-adv-x="952" 
d="M918 675l-178 -675h-113l-129 454q-15 52 -25 117h-1q-7 -55 -24 -116l-126 -455h-110l-178 675h98l114 -440q16 -63 27 -130h1q11 69 27 125l125 445h104l129 -449q16 -57 27 -119h1q12 67 23 110l117 458h91z" />
    <glyph glyph-name="X" unicode="X" horiz-adv-x="599" 
d="M582 0h-115l-172 279l-171 -279h-107l222 348l-208 327h106l160 -258l157 258h104l-205 -324z" />
    <glyph glyph-name="Y" unicode="Y" horiz-adv-x="537" 
d="M527 675l-215 -432v-243h-92v243l-211 432h101l107 -228q30 -65 51 -117h1q18 45 58 129l104 216h96z" />
    <glyph glyph-name="Z" unicode="Z" horiz-adv-x="539" 
d="M495 0h-449v68l283 446q30 47 55 81q-64 -2 -147 -2h-181v82h435v-70l-298 -464q-14 -23 -40 -59q21 2 168 2h174v-84z" />
    <glyph glyph-name="bracketleft" unicode="[" horiz-adv-x="322" 
d="M284 -199h-198v970h198v-69h-114v-830h114v-71z" />
    <glyph glyph-name="backslash" unicode="\" horiz-adv-x="409" 
d="M376 0h-85l-259 675h83z" />
    <glyph glyph-name="bracketright" unicode="]" horiz-adv-x="322" 
d="M236 -199h-198v71h114v830h-114v69h198v-970z" />
    <glyph glyph-name="asciicircum" unicode="^" horiz-adv-x="535" 
d="M472 377l-67 -34l-144 265l-138 -265l-61 33l165 299h72z" />
    <glyph glyph-name="underscore" unicode="_" horiz-adv-x="500" 
d="M500 -252h-500v71h500v-71z" />
    <glyph glyph-name="grave" unicode="`" horiz-adv-x="369" 
d="M283 626l-37 -52l-151 99l46 63z" />
    <glyph glyph-name="a" unicode="a" horiz-adv-x="521" 
d="M437 0h-87q0 71 5 99h-2q-19 -47 -64 -77.5t-105 -30.5q-63 0 -100.5 32.5t-37.5 90.5q0 82 79.5 130t219.5 48v37q0 54 -25 80t-84 26q-82 0 -150 -41l-9 77q86 36 174 36q101 0 146 -46q38 -40 38 -120v-198q0 -57 2 -143zM345 220v9q-211 0 -211 -98q0 -31 20.5 -50
t55.5 -19q58 0 98 50q37 47 37 108z" />
    <glyph glyph-name="b" unicode="b" horiz-adv-x="558" 
d="M515 272q0 -130 -69.5 -204.5t-189.5 -74.5q-95 0 -171 20v717h90v-241q0 -55 -9 -93l2 -1q20 52 63.5 81.5t100.5 29.5q88 0 135.5 -60t47.5 -174zM421 264q0 168 -110 168q-63 0 -102 -63q-34 -56 -34 -128v-165q39 -12 88 -12q158 0 158 200z" />
    <glyph glyph-name="c" unicode="c" horiz-adv-x="435" 
d="M403 19q-66 -26 -144 -26q-218 0 -218 239q0 124 63.5 198.5t184.5 74.5q57 0 113 -16l-10 -79q-54 21 -107 21q-73 0 -111 -50t-38 -137q0 -174 142 -174q67 0 118 27z" />
    <glyph glyph-name="d" unicode="d" horiz-adv-x="557" 
d="M472 0h-87q0 62 8 101l-2 1q-21 -51 -65 -81t-102 -30q-90 0 -137 63q-46 60 -46 171q0 130 69.5 204.5t187.5 74.5q34 0 84 -5v231h90v-730zM382 257v165q-41 11 -88 11q-158 0 -158 -200q0 -168 110 -168q63 0 102 63q34 56 34 129z" />
    <glyph glyph-name="e" unicode="e" horiz-adv-x="508" 
d="M462 297q0 -17 -3 -43h-325q-6 -190 157 -190q80 0 145 31l8 -73q-74 -31 -168 -31q-235 0 -235 255q0 115 59.5 187.5t162.5 72.5q100 0 152 -62q47 -55 47 -147zM370 318q2 55 -28.5 88.5t-82.5 33.5q-48 0 -80.5 -33.5t-40.5 -88.5h232z" />
    <glyph glyph-name="f" unicode="f" horiz-adv-x="350" 
d="M382 727l-8 -75q-32 11 -73 11q-102 0 -102 -128v-38h138v-70h-138v-427h-90v427h-102v70h102v37q0 202 191 202q42 0 82 -9z" />
    <glyph glyph-name="g" unicode="g" horiz-adv-x="556" 
d="M522 426h-84q42 -32 42 -97q0 -83 -55 -133q-58 -52 -161 -52q-29 0 -63 6q-32 -13 -32 -41q0 -39 85 -39h92q81 0 124.5 -37t43.5 -105q0 -80 -74 -133.5t-190 -53.5q-97 0 -153 38t-56 108q0 86 82 129q-49 23 -49 73q0 57 56 83q-73 42 -73 142q0 82 57 135
q60 57 161 57q39 0 78 -9h169v-71zM391 323q0 55 -31.5 85.5t-88.5 30.5q-58 0 -92 -32.5t-34 -83.5q0 -114 123 -114q57 0 90 30t33 84zM425 -83q0 78 -104 78h-127q-64 -33 -64 -91q0 -43 37 -67t97 -24q75 0 118 28.5t43 75.5z" />
    <glyph glyph-name="h" unicode="h" 
d="M491 0h-90v321q0 111 -85 111q-61 0 -101 -55t-40 -138v-239h-90v730h90v-235q0 -66 -9 -99l2 -1q48 112 173 112q150 0 150 -159v-348z" />
    <glyph glyph-name="i" unicode="i" horiz-adv-x="260" 
d="M190 638q0 -24 -17.5 -41.5t-42.5 -17.5t-42.5 17t-17.5 42q0 24 17.5 41t42.5 17t42.5 -16.5t17.5 -41.5zM175 0h-90v497h90v-497z" />
    <glyph glyph-name="j" unicode="j" horiz-adv-x="266" 
d="M196 638q0 -24 -17.5 -41.5t-41.5 -17.5q-25 0 -42.5 17t-17.5 42q0 24 17.5 41t42.5 17q24 0 41.5 -17t17.5 -41zM181 -55q0 -103 -37 -149q-39 -50 -134 -50q-39 0 -69 9l8 79q33 -12 63 -12q46 0 63 24t17 91v560h89v-552z" />
    <glyph glyph-name="k" unicode="k" horiz-adv-x="493" 
d="M474 0h-115l-184 256v-256h-90v730h90v-451l175 218h109l-191 -227z" />
    <glyph glyph-name="l" unicode="l" horiz-adv-x="260" 
d="M175 0h-90v730h90v-730z" />
    <glyph glyph-name="m" unicode="m" horiz-adv-x="879" 
d="M794 0h-90v319q0 56 -16 82q-19 31 -65 31q-56 0 -96 -52q-43 -56 -43 -143v-237h-89v320q0 112 -81 112q-58 0 -98.5 -55.5t-40.5 -139.5v-237h-90v497h87q0 -64 -8 -104l2 -1q22 53 68 84t105 31q70 0 106 -41q27 -30 31 -72q20 44 57 74q48 39 113 39q148 0 148 -163
v-344z" />
    <glyph glyph-name="n" unicode="n" 
d="M491 0h-90v321q0 111 -85 111q-61 0 -101 -55t-40 -138v-239h-90v497h87q0 -65 -8 -104l2 -1q48 115 175 115q150 0 150 -159v-348z" />
    <glyph glyph-name="o" unicode="o" horiz-adv-x="545" 
d="M505 257q0 -114 -67 -190t-176 -76q-105 0 -162 61q-61 65 -61 192q0 112 66 187t176 75q102 0 160 -57q64 -64 64 -192zM411 252q0 179 -138 179q-59 0 -97 -43q-43 -48 -43 -135q0 -186 140 -186q59 0 97 45q41 49 41 140z" />
    <glyph glyph-name="p" unicode="p" horiz-adv-x="558" 
d="M515 272q0 -132 -67.5 -205t-188.5 -73q-49 0 -84 6v-247h-90v744h87q0 -64 -8 -101l2 -1q45 111 167 111q87 0 134.5 -60.5t47.5 -173.5zM421 264q0 168 -110 168q-63 0 -102 -63q-34 -56 -34 -129v-164q39 -12 88 -12q158 0 158 200z" />
    <glyph glyph-name="q" unicode="q" horiz-adv-x="558" 
d="M473 -247h-89v258q0 54 7 89l-2 1q-20 -51 -63.5 -80.5t-98.5 -29.5q-184 0 -184 233q0 131 69.5 206t192.5 75q79 0 168 -14v-738zM384 258v165q-43 10 -89 10q-157 0 -157 -200q0 -168 109 -168q63 0 102 64q35 56 35 129z" />
    <glyph glyph-name="r" unicode="r" horiz-adv-x="355" 
d="M334 506l-4 -88q-15 3 -29 3q-126 0 -126 -221v-200h-90v497h87q0 -62 -11 -118h2q39 128 151 128q10 0 20 -1z" />
    <glyph glyph-name="s" unicode="s" horiz-adv-x="425" 
d="M375 149q0 -69 -56 -113q-59 -45 -156 -45q-58 0 -105 9l3 80q53 -17 109 -17q50 0 80.5 21t30.5 55q0 44 -60 67l-111 41q-60 35 -60 110q0 65 52.5 107t146.5 42q45 0 95 -10l-2 -75q-50 16 -100 16q-99 0 -99 -71q0 -44 60 -68l112 -43q60 -35 60 -106z" />
    <glyph glyph-name="t" unicode="t" horiz-adv-x="371" 
d="M334 2q-47 -10 -96 -10q-75 0 -104 33.5t-29 115.5v286h-102v70h102v161l90 25v-186h139v-70h-139v-254q0 -62 14.5 -83t56.5 -21q32 0 68 9v-76z" />
    <glyph glyph-name="u" unicode="u" 
d="M490 0h-87q0 58 8 104l-2 1q-48 -115 -175 -115q-149 0 -149 159v348h89v-321q0 -111 85 -111q61 0 101.5 55t40.5 138v239h89v-497z" />
    <glyph glyph-name="v" unicode="v" horiz-adv-x="486" 
d="M478 497l-190 -497h-93l-187 497h101l105 -296q17 -49 29 -94h2q16 57 28 91l108 299h97z" />
    <glyph glyph-name="w" unicode="w" horiz-adv-x="793" 
d="M777 497l-161 -497h-101l-99 293q-11 31 -28 99h-1q-10 -46 -35 -125l-83 -267h-100l-153 497h99l76 -265q25 -88 36 -130h1q17 74 34 128l85 267h96l86 -264q25 -76 38 -132h1q17 70 34 128l80 268h95z" />
    <glyph glyph-name="x" unicode="x" horiz-adv-x="518" 
d="M498 0h-116l-126 191l-126 -191h-109l183 249l-174 248h110l123 -187l125 187h101l-171 -245z" />
    <glyph glyph-name="y" unicode="y" horiz-adv-x="480" 
d="M472 497l-207 -547q-44 -117 -89 -160.5t-126 -43.5q-25 0 -65 6l8 81q30 -10 64 -10q42 0 67 25t52 96l21 56l-188 497h102l94 -258q15 -40 38 -123h2q13 50 49 153l80 228h98z" />
    <glyph glyph-name="z" unicode="z" horiz-adv-x="447" 
d="M396 0h-348v63l238 356q-56 -2 -131 -2h-102v80h338v-63l-235 -353q54 2 135 2h105v-83z" />
    <glyph glyph-name="braceleft" unicode="{" horiz-adv-x="341" 
d="M309 -199h-18q-84 0 -121 49q-35 46 -35 146v175q0 59 -24 83t-82 27v71q60 3 83 25.5t23 82.5v117q0 194 156 194h18v-69q-52 0 -71.5 -26t-19.5 -96v-116q0 -129 -93 -146v-2q93 -14 93 -148v-174q0 -70 19.5 -96t71.5 -26v-71z" />
    <glyph glyph-name="bar" unicode="|" horiz-adv-x="279" 
d="M174 -250h-71v1000h71v-1000z" />
    <glyph glyph-name="braceright" unicode="}" horiz-adv-x="338" 
d="M318 281q-58 -3 -82 -27t-24 -83v-175q0 -100 -35 -146q-37 -49 -121 -49h-18v71q52 0 71.5 26t19.5 96v174q0 134 93 148v2q-93 12 -93 142v120q0 70 -19.5 96t-71.5 26v69h18q156 0 156 -194v-113q0 -63 23 -86t83 -26v-71z" />
    <glyph glyph-name="asciitilde" unicode="~" horiz-adv-x="579" 
d="M529 264q-60 -62 -137 -62q-52 0 -116.5 32t-99.5 32q-49 0 -98 -43l-29 66q63 55 134 55q52 0 114 -32t101 -32q48 0 101 48z" />
    <glyph glyph-name="dagger" unicode="&#x2020;" horiz-adv-x="469" 
d="M427 482h-157l19 -146l-24 -339h-62l-23 339l19 146h-158v70h158l-19 178h109l-19 -178h157v-70z" />
    <glyph glyph-name="cent" unicode="&#xa2;" horiz-adv-x="455" 
d="M413 65q-51 -23 -106 -27v-106h-71v106q-93 9 -143 70t-50 165q0 97 52 163t141 79v92h71v-88q55 -2 103 -20l-7 -78q-49 25 -112 25q-72 0 -113.5 -44.5t-41.5 -123.5q0 -164 153 -164q66 0 117 30z" />
    <glyph glyph-name="sterling" unicode="&#xa3;" horiz-adv-x="494" 
d="M432 0h-374v68q61 44 87 82q29 43 29 100q0 15 -6 82h-109v69h101q-11 107 -11 123q0 183 179 183q41 0 81 -8l-5 -74q-40 9 -73 9q-92 0 -92 -104q0 -19 11 -129h143v-69h-136q5 -45 5 -70q0 -59 -23 -104q-22 -40 -71 -83q42 4 81 4h183v-79z" />
    <glyph glyph-name="section" unicode="&#xa7;" horiz-adv-x="494" 
d="M419 222q0 -82 -65 -135q31 -46 31 -99q0 -64 -44 -107q-52 -51 -146 -51q-38 0 -74 9l7 80q36 -12 72 -12q90 0 90 81q0 42 -57 106l-105 118q-57 75 -57 143q0 86 66 138q-29 39 -29 92q0 68 43 111q49 47 138 47q38 0 69 -7l-7 -76q-31 9 -66 9q-82 0 -82 -80
q0 -40 56 -104l104 -119q56 -76 56 -144zM336 211q0 47 -48 108l-103 120q-30 -22 -30 -74q0 -41 40 -96q25 -35 112 -130q29 24 29 72z" />
    <glyph glyph-name="bullet" unicode="&#x2022;" horiz-adv-x="430" 
d="M330 292q0 -50 -35.5 -85.5t-85.5 -35.5t-85 35.5t-35 85.5t35.5 85.5t84.5 35.5q50 0 85.5 -35.5t35.5 -85.5z" />
    <glyph glyph-name="paragraph" unicode="&#xb6;" horiz-adv-x="576" 
d="M516 605h-71v-701h-154v70h73v701h152v-70zM289 247q-109 0 -169 64q-54 58 -54 152q0 93 62 152.5t161 59.5v-428z" />
    <glyph glyph-name="germandbls" unicode="&#xdf;" horiz-adv-x="593" 
d="M552 149q0 -70 -54.5 -114.5t-144.5 -44.5q-53 0 -99 11l4 79q49 -18 94 -18q54 0 83 23q25 21 25 53q0 43 -51 76l-95 59q-51 43 -51 110q0 51 36 88l66 54q36 32 36 70q0 73 -95 73q-131 0 -131 -163v-505h-90v500q0 122 67 184q58 54 159 54q85 0 135 -38
q47 -36 47 -97q0 -57 -36 -94l-68 -53t-35 -63q0 -41 51 -75l96 -60q51 -43 51 -109z" />
    <glyph glyph-name="acute" unicode="&#xb4;" horiz-adv-x="389" 
d="M286 674l-151 -99l-36 50l142 111z" />
    <glyph glyph-name="dieresis" unicode="&#xa8;" horiz-adv-x="546" 
d="M414 654q0 -22 -15 -37.5t-38 -15.5t-38.5 15.5t-15.5 37.5q0 23 16 38.5t38 15.5t37.5 -15.5t15.5 -38.5zM222 654q0 -22 -15 -37.5t-38 -15.5t-38.5 15.5t-15.5 37.5q0 23 16 38.5t38 15.5t37.5 -15.5t15.5 -38.5z" />
    <glyph glyph-name="AE" unicode="&#xc6;" horiz-adv-x="781" 
d="M711 0h-349v163h-224l-85 -163h-96l359 675h386v-76h-250v-214h240v-74h-240v-234h259v-77zM362 236v362h-2q-16 -38 -66 -137l-122 -225h190z" />
    <glyph glyph-name="Oslash" unicode="&#xd8;" horiz-adv-x="705" 
d="M660 341q0 -163 -92 -259q-88 -92 -229 -92q-42 0 -78 9l-37 -102l-69 22l38 102q-152 76 -152 311q0 164 92 261q88 92 225 92q37 0 72 -8l36 97l68 -23l-35 -94q161 -73 161 -316zM566 332q0 178 -98 237l-179 -491q31 -9 66 -8q92 3 150 69q61 71 61 193zM403 597
q-35 7 -68 5q-85 -4 -141 -71q-59 -72 -59 -191q0 -169 88 -230z" />
    <glyph glyph-name="yen" unicode="&#xa5;" horiz-adv-x="591" 
d="M557 675l-194 -384h142v-61h-164v-70h164v-61h-164v-99h-91v99h-165v61h165v70h-165v61h143l-190 384h100l107 -222q30 -61 51 -121h1q17 47 59 132l104 211h97z" />
    <glyph glyph-name="ordfeminine" unicode="&#xaa;" horiz-adv-x="386" 
d="M320 343h-74q0 32 5 53l-2 1q-10 -25 -39 -43t-62 -18q-100 0 -100 86q0 57 52.5 89.5t144.5 32.5v18q0 60 -65 60q-55 0 -105 -26l-7 66q55 21 123 21q128 0 128 -111v-82q-1 -49 -1 -60q0 -53 2 -87zM245 484v9q-123 0 -123 -59q0 -38 43 -38q37 0 61 34q19 27 19 54z
" />
    <glyph glyph-name="ordmasculine" unicode="&#xba;" horiz-adv-x="419" 
d="M368 515q0 -80 -47.5 -129t-121.5 -49q-152 0 -152 173q0 77 46.5 125.5t118.5 48.5q156 0 156 -169zM288 514q0 104 -80 104q-34 0 -55 -24q-26 -29 -26 -82q0 -108 78 -108q83 0 83 110z" />
    <glyph glyph-name="ae" unicode="&#xe6;" horiz-adv-x="807" 
d="M761 297q0 -17 -3 -43h-325q-6 -190 156 -190q81 0 146 31l8 -73q-74 -31 -168 -31q-157 0 -203 114l-1 -1q-25 -48 -69 -77q-52 -36 -119 -36q-63 0 -100 32.5t-37 90.5q0 82 79.5 130t219.5 48v37q0 106 -109 106q-82 0 -150 -41l-9 77q86 36 174 36q114 0 154 -77h1
q51 76 157 76q99 0 151 -62q47 -55 47 -147zM669 318q2 55 -28 88.5t-82 33.5q-48 0 -81.5 -33.5t-41.5 -88.5h233zM345 220v9q-211 0 -211 -99q0 -31 21 -49.5t55 -18.5q58 0 98 50q37 47 37 108z" />
    <glyph glyph-name="oslash" unicode="&#xf8;" horiz-adv-x="543" 
d="M499 257q0 -115 -66 -191t-174 -76q-34 0 -63 9l-39 -103l-59 19l41 104q-103 59 -103 226q0 114 65.5 188t174.5 74q18 0 48 -4l36 93l59 -19l-36 -92q116 -56 116 -228zM413 253q0 112 -61 154l-128 -335q23 -9 53 -8q58 3 95 47q41 51 41 142zM297 431q-22 4 -38 3
q-56 -2 -93 -44q-44 -49 -44 -139q0 -103 50 -148z" />
    <glyph glyph-name="questiondown" unicode="&#xbf;" horiz-adv-x="423" 
d="M305 448q0 -25 -17.5 -42t-42.5 -17q-26 0 -43.5 17t-17.5 42t17.5 42t43.5 17q25 0 42.5 -17t17.5 -42zM349 -132l-11 -82q-127 7 -205 64q-74 54 -74 131q0 57 41 106l75 80q40 48 40 100q0 29 -11 63h88q15 -41 15 -77q0 -56 -39 -106l-71 -76q-39 -42 -39 -80
q0 -49 53.5 -83.5t137.5 -39.5z" />
    <glyph glyph-name="exclamdown" unicode="&#xa1;" horiz-adv-x="301" 
d="M209 448q0 -25 -17.5 -42t-43.5 -17q-25 0 -42.5 17t-17.5 42t17.5 42t42.5 17q26 0 43.5 -17t17.5 -42zM199 -209h-102l13 539h75z" />
    <glyph glyph-name="florin" unicode="&#x192;" horiz-adv-x="428" 
d="M408 733l-5 -75q-25 7 -63 7q-84 0 -95 -116l-12 -124h128v-69h-134l-33 -357q-11 -119 -54 -166.5t-135 -47.5q-31 0 -67 6l5 76q27 -7 64 -7q84 0 95 120l35 376h-95v69h101l11 112q11 109 54 155.5t134 46.5q30 0 66 -6z" />
    <glyph glyph-name="guillemotleft" unicode="&#xab;" horiz-adv-x="509" 
d="M237 390l-95 -143l94 -142l-70 -38l-112 179l115 182zM437 388l-102 -141l101 -139l-68 -39l-121 177l124 180z" />
    <glyph glyph-name="guillemotright" unicode="&#xbb;" horiz-adv-x="509" 
d="M455 249l-115 -182l-67 37l94 144l-94 141l70 39zM263 249l-125 -180l-66 38l102 141l-101 139l68 39z" />
    <glyph glyph-name="ellipsis" unicode="&#x2026;" horiz-adv-x="665" 
d="M603 51q0 -25 -18 -42.5t-43 -17.5t-42.5 17.5t-17.5 42.5t17.5 43t42.5 18q26 0 43.5 -17.5t17.5 -43.5zM388 51q0 -25 -18 -42.5t-43 -17.5t-42.5 17.5t-17.5 42.5t17.5 43t42.5 18q26 0 43.5 -17.5t17.5 -43.5zM173 51q0 -25 -17.5 -42.5t-42.5 -17.5t-43 17.5
t-18 42.5q0 26 18 43.5t43 17.5t42.5 -18t17.5 -43z" />
    <glyph glyph-name="OE" unicode="&#x152;" horiz-adv-x="832" 
d="M763 0h-275q-28 0 -76 -3t-74 -3q-149 0 -225 95q-71 88 -71 243q0 159 92 256q88 92 222 92q26 0 68.5 -2.5t61.5 -2.5h277v-76h-256v-214h243v-74h-243v-234h256v-77zM418 80v516q-31 6 -66 6q-91 0 -151 -69q-63 -72 -63 -192q0 -121 48 -189q55 -78 167 -78
q38 0 65 6z" />
    <glyph glyph-name="oe" unicode="&#x153;" horiz-adv-x="872" 
d="M826 297q0 -17 -3 -43h-325q-6 -190 156 -190q83 0 147 31l7 -73q-74 -31 -168 -31q-144 0 -195 101q-59 -101 -184 -101q-111 0 -168 71q-54 67 -54 184q0 113 65.5 186.5t174.5 73.5q127 0 178 -94q57 94 171 94q99 0 151 -62q47 -55 47 -147zM734 318q2 55 -28 88.5
t-82 33.5q-48 0 -81.5 -33.5t-41.5 -88.5h233zM411 252q0 181 -141 181q-58 0 -96 -40q-46 -49 -46 -142q0 -186 143 -186q60 0 98 46q42 50 42 141z" />
    <glyph glyph-name="endash" unicode="&#x2013;" horiz-adv-x="500" 
d="M500 250h-500v78h500v-78z" />
    <glyph glyph-name="emdash" unicode="&#x2014;" horiz-adv-x="1000" 
d="M1000 250h-1000v78h1000v-78z" />
    <glyph glyph-name="quotedblleft" unicode="&#x201c;" horiz-adv-x="433" 
d="M393 715q-56 -61 -56 -105q0 -16 12.5 -39t12.5 -34q0 -22 -15.5 -38.5t-40.5 -16.5q-27 0 -44.5 21t-17.5 55q0 92 110 192zM203 715q-56 -61 -56 -105q0 -16 12.5 -39t12.5 -34q0 -22 -15.5 -38.5t-40.5 -16.5q-27 0 -44.5 21t-17.5 55q0 92 110 192z" />
    <glyph glyph-name="quotedblright" unicode="&#x201d;" horiz-adv-x="433" 
d="M316 743q27 0 44.5 -21t17.5 -55q0 -92 -110 -192l-39 35q56 61 56 105q0 16 -12.5 39t-12.5 34q0 22 15.5 38.5t40.5 16.5zM126 743q27 0 44.5 -21t17.5 -55q0 -92 -110 -192l-39 35q56 61 56 105q0 16 -12.5 39t-12.5 34q0 22 15.5 38.5t40.5 16.5z" />
    <glyph glyph-name="quoteleft" unicode="&#x2018;" horiz-adv-x="243" 
d="M203 715q-56 -61 -56 -105q0 -16 12.5 -39t12.5 -34q0 -22 -15.5 -38.5t-40.5 -16.5q-27 0 -44.5 21t-17.5 55q0 92 110 192z" />
    <glyph glyph-name="quoteright" unicode="&#x2019;" horiz-adv-x="243" 
d="M126 743q27 0 44.5 -21t17.5 -55q0 -92 -110 -192l-39 35q56 61 56 105q0 16 -12.5 39t-12.5 34q0 22 15.5 38.5t40.5 16.5z" />
    <glyph glyph-name="fraction" unicode="&#x2215;" horiz-adv-x="419" 
d="M491 721l-431 -843l-72 35l431 843z" />
    <glyph glyph-name="currency" unicode="&#xa4;" horiz-adv-x="556" 
d="M472 -38q0 -89 -49 -144q-65 -73 -210 -73q-75 0 -144 19l7 88q69 -28 145 -28q81 0 121.5 34.5t40.5 116.5v39q0 55 6 87h-2q-20 -51 -63.5 -80.5t-97.5 -29.5q-89 0 -137 59.5t-48 174.5q0 131 70 205.5t193 74.5q77 0 168 -14v-529zM382 258v165q-41 10 -88 10
q-158 0 -158 -200q0 -168 110 -168q63 0 102 64q34 56 34 129z" />
    <glyph glyph-name="guilsinglleft" unicode="&#x2039;" horiz-adv-x="313" 
d="M241 389l-99 -142l98 -140l-69 -39l-118 178l121 181z" />
    <glyph glyph-name="guilsinglright" unicode="&#x203a;" horiz-adv-x="313" 
d="M260 249l-121 -181l-67 38l99 142l-98 140l69 39z" />
    <glyph glyph-name="fi" unicode="&#xf001;" horiz-adv-x="590" 
d="M505 0h-90v427h-216v-427h-90v427h-102v70h102v22q0 218 232 218q66 0 140 -19l-17 -75q-62 20 -121 20q-144 0 -144 -134v-32h306v-497z" />
    <glyph glyph-name="fl" unicode="&#xf002;" horiz-adv-x="590" 
d="M505 0h-90v656q-46 8 -86 8q-130 0 -130 -118v-49h135v-70h-135v-427h-90v427h-102v70h102v57q0 183 229 183q74 0 167 -15v-722z" />
    <glyph glyph-name="daggerdbl" unicode="&#x2021;" horiz-adv-x="469" 
d="M427 184h-157l19 -184h-110l19 184h-157v70h157l-18 117l18 117h-157v70h157l-18 172h109l-19 -172h157v-70h-157l19 -117l-19 -117h157v-70z" />
    <glyph glyph-name="periodcentered" unicode="&#x2219;" horiz-adv-x="234" 
d="M181 288q0 -27 -18.5 -45.5t-45.5 -18.5t-45.5 18.5t-18.5 45.5t18.5 45.5t45.5 18.5t45.5 -18.5t18.5 -45.5z" />
    <glyph glyph-name="quotesinglbase" unicode="&#x201a;" horiz-adv-x="243" 
d="M126 113q27 0 44.5 -21t17.5 -55q0 -91 -110 -191l-39 34q56 61 56 105q0 16 -12.5 39t-12.5 34q0 22 15.5 38.5t40.5 16.5z" />
    <glyph glyph-name="quotedblbase" unicode="&#x201e;" horiz-adv-x="433" 
d="M316 113q27 0 44.5 -21t17.5 -55q0 -91 -110 -191l-39 34q56 61 56 105q0 16 -12.5 39t-12.5 34q0 22 15.5 38.5t40.5 16.5zM126 113q27 0 44.5 -21t17.5 -55q0 -91 -110 -191l-39 34q56 61 56 105q0 16 -12.5 39t-12.5 34q0 22 15.5 38.5t40.5 16.5z" />
    <glyph glyph-name="perthousand" unicode="&#x2030;" horiz-adv-x="1050" 
d="M996 158q0 -78 -43.5 -125.5t-108.5 -47.5q-140 0 -140 158q0 78 45 126q42 45 105 45q142 0 142 -156zM335 533q0 -78 -44 -125t-109 -47q-139 0 -139 158q0 77 45 126q42 45 104 45q143 0 143 -157zM619 652l-470 -675l-64 46l470 675zM663 158q0 -78 -44 -125.5
t-109 -47.5q-139 0 -139 158q0 78 45 126q42 45 104 45q143 0 143 -156zM919 151q0 52 -15.5 75t-53.5 23q-32 0 -50.5 -27t-18.5 -72q0 -100 67 -100q71 0 71 101zM257 527q0 52 -15 75t-53 23q-32 0 -50.5 -27t-18.5 -72q0 -100 67 -100q70 0 70 101zM585 151
q0 53 -15.5 75.5t-53.5 22.5q-31 0 -49.5 -27t-18.5 -72q0 -100 66 -100q71 0 71 101z" />
    <glyph glyph-name="dotlessi" unicode="&#x131;" horiz-adv-x="260" 
d="M175 0h-90v497h90v-497z" />
    <glyph glyph-name="circumflex" unicode="&#x2c6;" horiz-adv-x="433" 
d="M355 633l-36 -54l-106 68l-102 -68l-33 52l136 93z" />
    <glyph glyph-name="tilde" unicode="&#x2dc;" horiz-adv-x="496" 
d="M422 634q-40 -40 -95 -40q-38 0 -79.5 23.5t-68.5 23.5q-35 0 -67 -32l-21 60q41 41 96 41q35 0 77.5 -23.5t67.5 -23.5q39 0 69 32z" />
    <glyph glyph-name="macron" unicode="&#xaf;" horiz-adv-x="385" 
d="M300 617h-221v67h221v-67z" />
    <glyph glyph-name="breve" unicode="&#x2d8;" horiz-adv-x="400" 
d="M325 719q0 -57 -30 -93q-35 -41 -97 -41t-94 41q-29 36 -29 93h62q0 -28 16 -47t46 -19q63 0 63 66h63z" />
    <glyph glyph-name="dotaccent" unicode="&#x2d9;" horiz-adv-x="283" 
d="M200 656q0 -24 -17 -41t-42 -17q-24 0 -41 17t-17 41t17.5 41t40.5 17q24 0 41.5 -17t17.5 -41z" />
    <glyph glyph-name="ring" unicode="&#x2da;" horiz-adv-x="383" 
d="M305 651q0 -45 -33.5 -77t-80.5 -32q-48 0 -80.5 31t-32.5 78t33.5 78.5t79.5 31.5q48 0 81 -31.5t33 -78.5zM247 651q0 23 -16.5 40t-39.5 17t-39 -17t-16 -40t16 -39.5t39 -16.5t39.5 16.5t16.5 39.5z" />
    <glyph glyph-name="cedilla" unicode="&#xb8;" horiz-adv-x="400" 
d="M281 -51q15 -32 15 -61q0 -74 -103 -130l-41 37q59 43 59 95q0 28 -17 59h87z" />
    <glyph glyph-name="hungarumlaut" unicode="&#x2dd;" horiz-adv-x="493" 
d="M440 679l-153 -105l-39 50l144 116zM248 697l-129 -123l-47 43l118 132z" />
    <glyph glyph-name="ogonek" unicode="&#x2db;" horiz-adv-x="259" 
d="M218 -225q-28 -9 -64 -9q-101 0 -101 91q0 60 50 139h65q-38 -68 -38 -121q0 -48 50 -48q16 0 38 4v-56z" />
    <glyph glyph-name="caron" unicode="&#x2c7;" horiz-adv-x="433" 
d="M349 672l-137 -94l-141 91l36 54l107 -68l101 68z" />
    <glyph glyph-name="Adieresis" unicode="&#xc4;" horiz-adv-x="615" 
d="M606 0h-103l-56 158h-287l-56 -158h-94l246 675h102zM422 231l-88 241q-18 51 -30 101h-2q-12 -50 -31 -102l-87 -240h238zM456 793q0 -22 -15 -37.5t-38 -15.5t-38.5 15.5t-15.5 37.5q0 23 16 38.5t38 15.5t37.5 -15.5t15.5 -38.5zM264 793q0 -22 -15 -37.5t-38 -15.5
t-38.5 15.5t-15.5 37.5q0 23 16 38.5t38 15.5t37.5 -15.5t15.5 -38.5z" />
    <glyph glyph-name="Aring" unicode="&#xc5;" horiz-adv-x="615" 
d="M606 0h-103l-56 158h-287l-56 -158h-94l246 675h102zM422 231l-88 241q-18 51 -30 101h-2q-12 -50 -31 -102l-87 -240h238zM422 770q0 -45 -33.5 -77t-80.5 -32q-48 0 -80.5 31t-32.5 78t33.5 78.5t79.5 31.5q48 0 81 -31.5t33 -78.5zM364 770q0 23 -16.5 40t-39.5 17
t-39 -17t-16 -40t16 -39.5t39 -16.5t39.5 16.5t16.5 39.5z" />
    <glyph glyph-name="Ccedilla" unicode="&#xc7;" horiz-adv-x="583" 
d="M536 26q-83 -34 -183 -34q-156 0 -235 93q-72 84 -72 235q0 163 80 258q86 103 250 103q73 0 153 -20l-10 -84q-78 24 -153 24q-110 0 -168 -77q-52 -71 -52 -189q0 -261 229 -261q83 0 151 34zM380 -51q15 -32 15 -61q0 -74 -103 -130l-41 37q59 43 59 95q0 28 -17 59
h87z" />
    <glyph glyph-name="Eacute" unicode="&#xc9;" horiz-adv-x="501" 
d="M432 0h-347v675h347v-76h-255v-214h243v-74h-243v-234h255v-77zM376 827l-151 -99l-36 50l142 111z" />
    <glyph glyph-name="Ntilde" unicode="&#xd1;" horiz-adv-x="707" 
d="M622 0h-120l-257 418q-42 68 -77 140q7 -126 7 -341v-217h-90v675h121l251 -405q37 -60 83 -148q-7 145 -7 361v192h89v-675zM515 787q-40 -40 -95 -40q-38 0 -79.5 23.5t-68.5 23.5q-35 0 -67 -32l-21 60q41 41 96 41q35 0 77.5 -23.5t67.5 -23.5q39 0 69 32z" />
    <glyph glyph-name="Odieresis" unicode="&#xd6;" horiz-adv-x="705" 
d="M663 345q0 -164 -94 -262q-89 -93 -226 -93q-148 0 -227 93q-74 89 -74 247q0 164 94 262q89 93 226 93q139 0 220 -88t81 -252zM565 334q0 129 -55.5 199.5t-157.5 70.5q-89 0 -148 -67q-64 -72 -64 -194q0 -125 52 -196q55 -75 159 -75q89 0 148 66q66 72 66 196z
M503 793q0 -22 -15 -37.5t-38 -15.5t-38.5 15.5t-15.5 37.5q0 23 16 38.5t38 15.5t37.5 -15.5t15.5 -38.5zM311 793q0 -22 -15 -37.5t-38 -15.5t-38.5 15.5t-15.5 37.5q0 23 16 38.5t38 15.5t37.5 -15.5t15.5 -38.5z" />
    <glyph glyph-name="Udieresis" unicode="&#xdc;" horiz-adv-x="693" 
d="M607 258q0 -268 -269 -268q-253 0 -253 237v448h92v-441q0 -79 33 -119q40 -49 134 -49q90 0 131.5 42.5t41.5 142.5v424h90v-417zM486 793q0 -22 -15 -37.5t-38 -15.5t-38.5 15.5t-15.5 37.5q0 23 16 38.5t38 15.5t37.5 -15.5t15.5 -38.5zM294 793q0 -22 -15 -37.5
t-38 -15.5t-38.5 15.5t-15.5 37.5q0 23 16 38.5t38 15.5t37.5 -15.5t15.5 -38.5z" />
    <glyph glyph-name="aacute" unicode="&#xe1;" horiz-adv-x="521" 
d="M437 0h-87q0 71 5 99h-2q-19 -47 -64 -77.5t-105 -30.5q-63 0 -100.5 32.5t-37.5 90.5q0 82 79.5 130t219.5 48v37q0 54 -25 80t-84 26q-82 0 -150 -41l-9 77q86 36 174 36q101 0 146 -46q38 -40 38 -120v-198q0 -57 2 -143zM345 220v9q-211 0 -211 -98q0 -31 20.5 -50
t55.5 -19q58 0 98 50q37 47 37 108zM381 674l-151 -99l-36 50l142 111z" />
    <glyph glyph-name="agrave" unicode="&#xe0;" horiz-adv-x="521" 
d="M437 0h-87q0 71 5 99h-2q-19 -47 -64 -77.5t-105 -30.5q-63 0 -100.5 32.5t-37.5 90.5q0 82 79.5 130t219.5 48v37q0 54 -25 80t-84 26q-82 0 -150 -41l-9 77q86 36 174 36q101 0 146 -46q38 -40 38 -120v-198q0 -57 2 -143zM345 220v9q-211 0 -211 -98q0 -31 20.5 -50
t55.5 -19q58 0 98 50q37 47 37 108zM328 626l-37 -52l-151 99l46 63z" />
    <glyph glyph-name="acircumflex" unicode="&#xe2;" horiz-adv-x="521" 
d="M437 0h-87q0 71 5 99h-2q-19 -47 -64 -77.5t-105 -30.5q-63 0 -100.5 32.5t-37.5 90.5q0 82 79.5 130t219.5 48v37q0 54 -25 80t-84 26q-82 0 -150 -41l-9 77q86 36 174 36q101 0 146 -46q38 -40 38 -120v-198q0 -57 2 -143zM345 220v9q-211 0 -211 -98q0 -31 20.5 -50
t55.5 -19q58 0 98 50q37 47 37 108zM396 633l-36 -54l-106 68l-102 -68l-33 52l136 93z" />
    <glyph glyph-name="adieresis" unicode="&#xe4;" horiz-adv-x="521" 
d="M437 0h-87q0 71 5 99h-2q-19 -47 -64 -77.5t-105 -30.5q-63 0 -100.5 32.5t-37.5 90.5q0 82 79.5 130t219.5 48v37q0 54 -25 80t-84 26q-82 0 -150 -41l-9 77q86 36 174 36q101 0 146 -46q38 -40 38 -120v-198q0 -57 2 -143zM345 220v9q-211 0 -211 -98q0 -31 20.5 -50
t55.5 -19q58 0 98 50q37 47 37 108zM404 654q0 -22 -15 -37.5t-38 -15.5t-38.5 15.5t-15.5 37.5q0 23 16 38.5t38 15.5t37.5 -15.5t15.5 -38.5zM212 654q0 -22 -15 -37.5t-38 -15.5t-38.5 15.5t-15.5 37.5q0 23 16 38.5t38 15.5t37.5 -15.5t15.5 -38.5z" />
    <glyph glyph-name="atilde" unicode="&#xe3;" horiz-adv-x="521" 
d="M437 0h-87q0 71 5 99h-2q-19 -47 -64 -77.5t-105 -30.5q-63 0 -100.5 32.5t-37.5 90.5q0 82 79.5 130t219.5 48v37q0 54 -25 80t-84 26q-82 0 -150 -41l-9 77q86 36 174 36q101 0 146 -46q38 -40 38 -120v-198q0 -57 2 -143zM345 220v9q-211 0 -211 -98q0 -31 20.5 -50
t55.5 -19q58 0 98 50q37 47 37 108zM416 634q-40 -40 -95 -40q-38 0 -79.5 23.5t-68.5 23.5q-35 0 -67 -32l-21 60q41 41 96 41q35 0 77.5 -23.5t67.5 -23.5q39 0 69 32z" />
    <glyph glyph-name="aring" unicode="&#xe5;" horiz-adv-x="521" 
d="M437 0h-87q0 71 5 99h-2q-19 -47 -64 -77.5t-105 -30.5q-63 0 -100.5 32.5t-37.5 90.5q0 82 79.5 130t219.5 48v37q0 54 -25 80t-84 26q-82 0 -150 -41l-9 77q86 36 174 36q101 0 146 -46q38 -40 38 -120v-198q0 -57 2 -143zM345 220v9q-211 0 -211 -98q0 -31 20.5 -50
t55.5 -19q58 0 98 50q37 47 37 108zM371 662q0 -45 -33.5 -77t-80.5 -32q-48 0 -80.5 31t-32.5 78t33.5 78.5t79.5 31.5q48 0 81 -31.5t33 -78.5zM313 662q0 23 -16.5 40t-39.5 17t-39 -17t-16 -40t16 -39.5t39 -16.5t39.5 16.5t16.5 39.5z" />
    <glyph glyph-name="ccedilla" unicode="&#xe7;" horiz-adv-x="435" 
d="M403 19q-66 -26 -144 -26q-218 0 -218 239q0 124 63.5 198.5t184.5 74.5q57 0 113 -16l-10 -79q-54 21 -107 21q-73 0 -111 -50t-38 -137q0 -174 142 -174q67 0 118 27zM290 -51q15 -32 15 -61q0 -74 -103 -130l-41 37q59 43 59 95q0 28 -17 59h87z" />
    <glyph glyph-name="eacute" unicode="&#xe9;" horiz-adv-x="508" 
d="M462 297q0 -17 -3 -43h-325q-6 -190 157 -190q80 0 145 31l8 -73q-74 -31 -168 -31q-235 0 -235 255q0 115 59.5 187.5t162.5 72.5q100 0 152 -62q47 -55 47 -147zM370 318q2 55 -28.5 88.5t-82.5 33.5q-48 0 -80.5 -33.5t-40.5 -88.5h232zM386 674l-151 -99l-36 50
l142 111z" />
    <glyph glyph-name="egrave" unicode="&#xe8;" horiz-adv-x="508" 
d="M462 297q0 -17 -3 -43h-325q-6 -190 157 -190q80 0 145 31l8 -73q-74 -31 -168 -31q-235 0 -235 255q0 115 59.5 187.5t162.5 72.5q100 0 152 -62q47 -55 47 -147zM370 318q2 55 -28.5 88.5t-82.5 33.5q-48 0 -80.5 -33.5t-40.5 -88.5h232zM329 626l-37 -52l-151 99
l46 63z" />
    <glyph glyph-name="ecircumflex" unicode="&#xea;" horiz-adv-x="508" 
d="M462 297q0 -17 -3 -43h-325q-6 -190 157 -190q80 0 145 31l8 -73q-74 -31 -168 -31q-235 0 -235 255q0 115 59.5 187.5t162.5 72.5q100 0 152 -62q47 -55 47 -147zM370 318q2 55 -28.5 88.5t-82.5 33.5q-48 0 -80.5 -33.5t-40.5 -88.5h232zM403 633l-36 -54l-106 68
l-102 -68l-33 52l136 93z" />
    <glyph glyph-name="edieresis" unicode="&#xeb;" horiz-adv-x="508" 
d="M462 297q0 -17 -3 -43h-325q-6 -190 157 -190q80 0 145 31l8 -73q-74 -31 -168 -31q-235 0 -235 255q0 115 59.5 187.5t162.5 72.5q100 0 152 -62q47 -55 47 -147zM370 318q2 55 -28.5 88.5t-82.5 33.5q-48 0 -80.5 -33.5t-40.5 -88.5h232zM412 654q0 -22 -15 -37.5
t-38 -15.5t-38.5 15.5t-15.5 37.5q0 23 16 38.5t38 15.5t37.5 -15.5t15.5 -38.5zM220 654q0 -22 -15 -37.5t-38 -15.5t-38.5 15.5t-15.5 37.5q0 23 16 38.5t38 15.5t37.5 -15.5t15.5 -38.5z" />
    <glyph glyph-name="iacute" unicode="&#xed;" horiz-adv-x="260" 
d="M175 0h-90v497h90v-497zM238 674l-151 -99l-36 50l142 111z" />
    <glyph glyph-name="igrave" unicode="&#xec;" horiz-adv-x="260" 
d="M175 0h-90v497h90v-497zM208 626l-37 -52l-151 99l46 63z" />
    <glyph glyph-name="icircumflex" unicode="&#xee;" horiz-adv-x="260" 
d="M175 0h-90v497h90v-497zM270 633l-36 -54l-106 68l-102 -68l-34 52l137 93z" />
    <glyph glyph-name="idieresis" unicode="&#xef;" horiz-adv-x="260" 
d="M175 0h-90v497h90v-497zM281 654q0 -22 -15.5 -37.5t-38.5 -15.5t-38.5 15.5t-15.5 37.5q0 23 16 38.5t38 15.5q23 0 38.5 -15.5t15.5 -38.5zM89 654q0 -22 -15.5 -37.5t-38.5 -15.5t-38.5 15.5t-15.5 37.5q0 23 16 38.5t38 15.5q23 0 38.5 -15.5t15.5 -38.5z" />
    <glyph glyph-name="ntilde" unicode="&#xf1;" 
d="M491 0h-90v321q0 111 -85 111q-61 0 -101 -55t-40 -138v-239h-90v497h87q0 -65 -8 -104l2 -1q48 115 175 115q150 0 150 -159v-348zM449 634q-40 -40 -95 -40q-38 0 -79.5 23.5t-68.5 23.5q-35 0 -67 -32l-21 60q41 41 96 41q35 0 77.5 -23.5t67.5 -23.5q39 0 69 32z" />
    <glyph glyph-name="oacute" unicode="&#xf3;" horiz-adv-x="545" 
d="M505 257q0 -114 -67 -190t-176 -76q-105 0 -162 61q-61 65 -61 192q0 112 66 187t176 75q102 0 160 -57q64 -64 64 -192zM411 252q0 179 -138 179q-59 0 -97 -43q-43 -48 -43 -135q0 -186 140 -186q59 0 97 45q41 49 41 140zM400 674l-151 -99l-36 50l142 111z" />
    <glyph glyph-name="ograve" unicode="&#xf2;" horiz-adv-x="545" 
d="M505 257q0 -114 -67 -190t-176 -76q-105 0 -162 61q-61 65 -61 192q0 112 66 187t176 75q102 0 160 -57q64 -64 64 -192zM411 252q0 179 -138 179q-59 0 -97 -43q-43 -48 -43 -135q0 -186 140 -186q59 0 97 45q41 49 41 140zM347 626l-37 -52l-151 99l46 63z" />
    <glyph glyph-name="ocircumflex" unicode="&#xf4;" horiz-adv-x="545" 
d="M505 257q0 -114 -67 -190t-176 -76q-105 0 -162 61q-61 65 -61 192q0 112 66 187t176 75q102 0 160 -57q64 -64 64 -192zM411 252q0 179 -138 179q-59 0 -97 -43q-43 -48 -43 -135q0 -186 140 -186q59 0 97 45q41 49 41 140zM413 633l-36 -54l-106 68l-102 -68l-33 52
l136 93z" />
    <glyph glyph-name="odieresis" unicode="&#xf6;" horiz-adv-x="545" 
d="M505 257q0 -114 -67 -190t-176 -76q-105 0 -162 61q-61 65 -61 192q0 112 66 187t176 75q102 0 160 -57q64 -64 64 -192zM411 252q0 179 -138 179q-59 0 -97 -43q-43 -48 -43 -135q0 -186 140 -186q59 0 97 45q41 49 41 140zM422 654q0 -22 -15 -37.5t-38 -15.5
t-38.5 15.5t-15.5 37.5q0 23 16 38.5t38 15.5t37.5 -15.5t15.5 -38.5zM230 654q0 -22 -15 -37.5t-38 -15.5t-38.5 15.5t-15.5 37.5q0 23 16 38.5t38 15.5t37.5 -15.5t15.5 -38.5z" />
    <glyph glyph-name="otilde" unicode="&#xf5;" horiz-adv-x="545" 
d="M505 257q0 -114 -67 -190t-176 -76q-105 0 -162 61q-61 65 -61 192q0 112 66 187t176 75q102 0 160 -57q64 -64 64 -192zM411 252q0 179 -138 179q-59 0 -97 -43q-43 -48 -43 -135q0 -186 140 -186q59 0 97 45q41 49 41 140zM440 634q-40 -40 -95 -40q-38 0 -79.5 23.5
t-68.5 23.5q-35 0 -67 -32l-21 60q41 41 96 41q35 0 77.5 -23.5t67.5 -23.5q39 0 69 32z" />
    <glyph glyph-name="uacute" unicode="&#xfa;" 
d="M490 0h-87q0 58 8 104l-2 1q-48 -115 -175 -115q-149 0 -149 159v348h89v-321q0 -111 85 -111q61 0 101.5 55t40.5 138v239h89v-497zM407 674l-151 -99l-36 50l142 111z" />
    <glyph glyph-name="ugrave" unicode="&#xf9;" 
d="M490 0h-87q0 58 8 104l-2 1q-48 -115 -175 -115q-149 0 -149 159v348h89v-321q0 -111 85 -111q61 0 101.5 55t40.5 138v239h89v-497zM358 626l-37 -52l-151 99l46 63z" />
    <glyph glyph-name="ucircumflex" unicode="&#xfb;" 
d="M490 0h-87q0 58 8 104l-2 1q-48 -115 -175 -115q-149 0 -149 159v348h89v-321q0 -111 85 -111q61 0 101.5 55t40.5 138v239h89v-497zM425 633l-36 -54l-106 68l-102 -68l-33 52l136 93z" />
    <glyph glyph-name="udieresis" unicode="&#xfc;" 
d="M490 0h-87q0 58 8 104l-2 1q-48 -115 -175 -115q-149 0 -149 159v348h89v-321q0 -111 85 -111q61 0 101.5 55t40.5 138v239h89v-497zM432 654q0 -22 -15 -37.5t-38 -15.5t-38.5 15.5t-15.5 37.5q0 23 16 38.5t38 15.5t37.5 -15.5t15.5 -38.5zM240 654q0 -22 -15 -37.5
t-38 -15.5t-38.5 15.5t-15.5 37.5q0 23 16 38.5t38 15.5t37.5 -15.5t15.5 -38.5z" />
    <glyph glyph-name="degree" unicode="&#xb0;" horiz-adv-x="376" 
d="M319 611q0 -58 -41 -93t-96 -35q-59 0 -94 34t-35 92t42 94q39 34 93 34q64 0 99 -37q32 -34 32 -89zM249 610q0 27 -14 46q-17 23 -49 23q-27 0 -44.5 -19.5t-17.5 -49.5q0 -68 61 -68q28 0 46 19t18 49z" />
    <glyph glyph-name="registered" unicode="&#xae;" horiz-adv-x="562" 
d="M501 531q0 -90 -65 -154.5t-155 -64.5q-93 0 -157 63.5t-64 155.5q0 91 64.5 155t156.5 64t156 -63.5t64 -155.5zM441 529q0 67 -47 115.5t-113 48.5q-67 0 -113.5 -47t-46.5 -114t47 -115.5t113 -48.5t113 47.5t47 113.5zM373 418h-60l-53 95h-4v-95h-49v228h79
q78 0 78 -60q0 -55 -53 -65q5 -5 19 -30zM312 580q0 28 -35 28h-21v-63h14q42 0 42 35z" />
    <glyph glyph-name="copyright" unicode="&#xa9;" horiz-adv-x="756" 
d="M712 336q0 -139 -98 -237.5t-238 -98.5q-142 0 -239 97t-97 237q0 139 98 237t238 98t238 -97t98 -236zM641 334q0 110 -77.5 188.5t-187.5 78.5t-187 -77.5t-77 -187.5t77.5 -189t186.5 -79q110 0 187.5 78t77.5 188zM475 175q-46 -17 -99 -17q-79 0 -120 49
q-38 44 -38 123t40 128q45 55 134 55q43 0 79 -13l-8 -64q-32 16 -72 16q-96 0 -96 -119q0 -111 92 -111q42 0 78 15z" />
    <glyph glyph-name="trademark" unicode="&#x2122;" horiz-adv-x="699" 
d="M647 394h-69l-29 201l-12 -46l-45 -155h-69l-55 201l-3 -37l-24 -164h-64l44 281h86l45 -154l10 -46l9 42l47 158h86zM260 620h-73v-226h-69v226h-74v55h216v-55z" />
    <glyph glyph-name="notequal" unicode="&#x2260;" horiz-adv-x="652" 
d="M684 727l-7 -75q-33 11 -74 11q-101 0 -101 -128v-38h138v-70h-138v-427h-90v427h-213v-427h-90v427h-102v70h102v25q0 91 47 144q56 62 172 62q82 0 151 -27q44 35 124 35q41 0 81 -9zM432 633q-51 22 -109 22q-124 0 -124 -124v-34h213v37q0 59 20 99z" />
    <glyph glyph-name="infinity" unicode="&#x221e;" horiz-adv-x="975" 
d="M918 276q0 -73 -48 -121q-52 -51 -138 -51q-95 0 -248 114q-152 -114 -249 -114q-86 0 -134 49q-44 45 -44 115q0 73 50.5 122.5t132.5 49.5q98 0 251 -115q151 115 248 115q85 0 132 -46.5t47 -117.5zM828 272q0 40 -24.5 64.5t-69.5 24.5q-58 0 -176 -87
q121 -91 179 -91q43 0 68 27q23 24 23 62zM417 270q-121 91 -179 91q-42 0 -66.5 -25.5t-24.5 -62.5q0 -40 24.5 -65t69.5 -25q59 0 176 87z" />
    <glyph glyph-name="plusminus" unicode="&#xb1;" horiz-adv-x="574" 
d="M528 273h-198v-201h-86v201h-198v75h198v199h86v-199h198v-75zM523 -62h-472v76h472v-76z" />
    <glyph glyph-name="lessequal" unicode="&#x2264;" horiz-adv-x="891" 
d="M808 0h-90v427h-216v-427h-90v427h-213v-427h-90v427h-102v70h102v25q0 92 48 144q56 62 172 62q88 0 158 -32q57 41 158 41q64 0 142 -19l-18 -75q-65 20 -122 20q-145 0 -145 -134v-32h306v-497zM437 632q-55 23 -114 23q-124 0 -124 -124v-34h213v22q0 69 25 113z" />
    <glyph glyph-name="greaterequal" unicode="&#x2265;" horiz-adv-x="891" 
d="M808 0h-90v656q-46 8 -86 8q-130 0 -130 -118v-49h134v-70h-134v-427h-90v427h-213v-427h-90v427h-102v70h102v25q0 92 48 144q56 62 172 62q81 0 153 -30q58 39 158 39q73 0 168 -15v-722zM431 635q-49 20 -108 20q-124 0 -124 -124v-34h213v57q0 47 19 81z" />
    <glyph glyph-name="mu" unicode="&#xb5;" horiz-adv-x="617" 
d="M530 0h-88q0 47 7 103l-1 1q-41 -112 -168 -112q-72 0 -105 39l-1 -1q3 -28 3 -108v-169h-90v744h90v-314q0 -119 117 -119q67 0 108 56q38 54 38 138v239h90v-497z" />
    <glyph glyph-name="partialdiff" unicode="&#x2202;" horiz-adv-x="889" 
d="M846 272q0 -130 -69.5 -204.5t-189.5 -74.5q-96 0 -172 20v643q-46 8 -86 8q-130 0 -130 -118v-49h135v-70h-135v-427h-90v427h-102v70h102v57q0 183 229 183q74 0 167 -15v-233q0 -53 -8 -93l1 -1q20 52 64 81.5t101 29.5q88 0 135.5 -60t47.5 -174zM751 264
q0 168 -110 168q-63 0 -102 -63q-34 -56 -34 -128v-165q39 -12 89 -12q157 0 157 200z" />
    <glyph glyph-name="summation" unicode="&#x3a3;" horiz-adv-x="905" 
d="M821 0h-90v321q0 111 -84 111q-61 0 -101.5 -55t-40.5 -138v-239h-90v656q-46 8 -86 8q-130 0 -130 -118v-49h135v-70h-135v-427h-90v427h-102v70h102v57q0 183 229 183q74 0 167 -15v-227q0 -64 -8 -99l2 -1q48 112 173 112q149 0 149 -159v-348z" />
    <glyph glyph-name="product" unicode="&#x220f;" horiz-adv-x="589" 
d="M505 -55q0 -103 -37 -149q-40 -50 -135 -50q-38 0 -68 9l8 79q31 -12 63 -12q46 0 62.5 24t16.5 91v490h-216v-427h-90v427h-102v70h102v22q0 218 232 218q66 0 140 -19l-17 -75q-62 20 -121 20q-144 0 -144 -134v-32h306v-552z" />
    <glyph glyph-name="pi" unicode="&#x3c0;" horiz-adv-x="672" 
d="M621 1q-42 -10 -94 -10q-62 0 -87 34q-22 31 -22 104v296h-183v-425h-86v425h-109v72h573v-72h-109v-229q0 -90 10 -113.5t47 -23.5q22 0 54 8z" />
    <glyph glyph-name="integral" unicode="&#x222b;" horiz-adv-x="824" 
d="M805 0h-116l-184 256v-256h-90v656q-46 8 -86 8q-130 0 -130 -118v-49h135v-70h-135v-427h-90v427h-102v70h102v57q0 183 229 183q74 0 167 -15v-443l175 218h110l-191 -227z" />
    <glyph glyph-name="Omega" unicode="&#x3a9;" horiz-adv-x="749" 
d="M680 0h-234v69q139 92 139 280q0 115 -53 188q-56 77 -156 77q-99 0 -158 -72t-59 -189q0 -188 142 -283v-70h-236v68h145q-140 92 -140 282q0 148 86 242t225 94q133 0 213 -84q83 -88 83 -243q0 -95 -39.5 -171.5t-105.5 -119.5h148v-68z" />
    <glyph glyph-name="logicalnot" unicode="&#xac;" horiz-adv-x="528" 
d="M478 69h-79v157h-362v74h441v-231z" />
    <glyph glyph-name="radical" unicode="&#x221a;" horiz-adv-x="608" 
d="M579 758l-234 -758h-104l-148 429h-92v68h165l95 -289q22 -66 34 -114h2q9 42 27 106l158 558h97z" />
    <glyph glyph-name="approxequal" unicode="&#x2248;" horiz-adv-x="600" 
d="M528 328q-57 -57 -129 -57q-48 0 -105 29.5t-97 29.5q-47 0 -98 -42l-29 62q61 57 131 57q48 0 107.5 -30.5t93.5 -30.5q45 0 96 44zM528 149q-61 -53 -129 -53q-51 0 -108 30t-94 30q-46 0 -97 -42l-30 62q61 57 128 57q47 0 106.5 -30.5t98.5 -30.5q50 0 96 39z" />
    <glyph glyph-name="Delta" unicode="&#x2206;" horiz-adv-x="730" 
d="M698 0h-665l283 700h95zM565 81l-206 513l-201 -513h407z" />
    <glyph glyph-name="nonbreakingspace" unicode="&#xa0;" horiz-adv-x="400" 
 />
    <glyph glyph-name="Agrave" unicode="&#xc0;" horiz-adv-x="615" 
d="M606 0h-103l-56 158h-287l-56 -158h-94l246 675h102zM422 231l-88 241q-18 51 -30 101h-2q-12 -50 -31 -102l-87 -240h238zM363 779l-37 -52l-151 99l46 63z" />
    <glyph glyph-name="Atilde" unicode="&#xc3;" horiz-adv-x="615" 
d="M606 0h-103l-56 158h-287l-56 -158h-94l246 675h102zM422 231l-88 241q-18 51 -30 101h-2q-12 -50 -31 -102l-87 -240h238zM475 787q-40 -40 -95 -40q-38 0 -79.5 23.5t-68.5 23.5q-35 0 -67 -32l-21 60q41 41 96 41q35 0 77.5 -23.5t67.5 -23.5q39 0 69 32z" />
    <glyph glyph-name="Otilde" unicode="&#xd5;" horiz-adv-x="705" 
d="M663 345q0 -164 -94 -262q-89 -93 -226 -93q-148 0 -227 93q-74 89 -74 247q0 164 94 262q89 93 226 93q139 0 220 -88t81 -252zM565 334q0 129 -55.5 199.5t-157.5 70.5q-89 0 -148 -67q-64 -72 -64 -194q0 -125 52 -196q55 -75 159 -75q89 0 148 66q66 72 66 196z
M520 788q-40 -40 -95 -40q-38 0 -79.5 23.5t-68.5 23.5q-35 0 -67 -32l-21 60q41 41 96 41q35 0 77.5 -23.5t67.5 -23.5q39 0 69 32z" />
    <glyph glyph-name="divide" unicode="&#xf7;" horiz-adv-x="587" 
d="M354 459q0 -25 -17.5 -43t-42.5 -18t-43 18t-18 43t18 42.5t43 17.5t42.5 -17.5t17.5 -42.5zM541 220h-495v76h495v-76zM354 56q0 -25 -17.5 -43t-42.5 -18t-43 18t-18 43t18 42.5t43 17.5t42.5 -17.5t17.5 -42.5z" />
    <glyph glyph-name="lozenge" unicode="&#x25ca;" horiz-adv-x="619" 
d="M585 335l-244 -344h-57l-250 350l246 343h55zM488 330l-184 255l-171 -242l182 -252z" />
    <glyph glyph-name="ydieresis" unicode="&#xff;" horiz-adv-x="480" 
d="M472 497l-207 -547q-44 -117 -89 -160.5t-126 -43.5q-25 0 -65 6l8 81q30 -10 64 -10q42 0 67 25t52 96l21 56l-188 497h102l94 -258q15 -40 38 -123h2q13 50 49 153l80 228h98zM386 654q0 -22 -15 -37.5t-38 -15.5t-38.5 15.5t-15.5 37.5q0 23 16 38.5t38 15.5
t37.5 -15.5t15.5 -38.5zM194 654q0 -22 -15 -37.5t-38 -15.5t-38.5 15.5t-15.5 37.5q0 23 16 38.5t38 15.5t37.5 -15.5t15.5 -38.5z" />
    <glyph glyph-name="Ydieresis" unicode="&#x178;" horiz-adv-x="537" 
d="M527 675l-215 -432v-243h-92v243l-211 432h101l107 -228q30 -65 51 -117h1q18 45 58 129l104 216h96zM413 793q0 -22 -15 -37.5t-38 -15.5t-38.5 15.5t-15.5 37.5q0 23 16 38.5t38 15.5t37.5 -15.5t15.5 -38.5zM221 793q0 -22 -15 -37.5t-38 -15.5t-38.5 15.5t-15.5 37.5
q0 23 16 38.5t38 15.5t37.5 -15.5t15.5 -38.5z" />
    <glyph glyph-name="Acircumflex" unicode="&#xc2;" horiz-adv-x="615" 
d="M606 0h-103l-56 158h-287l-56 -158h-94l246 675h102zM422 231l-88 241q-18 51 -30 101h-2q-12 -50 -31 -102l-87 -240h238zM448 786l-36 -54l-106 68l-102 -68l-33 52l136 93z" />
    <glyph glyph-name="Ecircumflex" unicode="&#xca;" horiz-adv-x="501" 
d="M432 0h-347v675h347v-76h-255v-214h243v-74h-243v-234h255v-77zM394 786l-36 -54l-106 68l-102 -68l-33 52l136 93z" />
    <glyph glyph-name="Aacute" unicode="&#xc1;" horiz-adv-x="615" 
d="M606 0h-103l-56 158h-287l-56 -158h-94l246 675h102zM422 231l-88 241q-18 51 -30 101h-2q-12 -50 -31 -102l-87 -240h238zM422 827l-151 -99l-36 50l142 111z" />
    <glyph glyph-name="Edieresis" unicode="&#xcb;" horiz-adv-x="501" 
d="M432 0h-347v675h347v-76h-255v-214h243v-74h-243v-234h255v-77zM403 793q0 -22 -15 -37.5t-38 -15.5t-38.5 15.5t-15.5 37.5q0 23 16 38.5t38 15.5t37.5 -15.5t15.5 -38.5zM211 793q0 -22 -15 -37.5t-38 -15.5t-38.5 15.5t-15.5 37.5q0 23 16 38.5t38 15.5t37.5 -15.5
t15.5 -38.5z" />
    <glyph glyph-name="Egrave" unicode="&#xc8;" horiz-adv-x="501" 
d="M432 0h-347v675h347v-76h-255v-214h243v-74h-243v-234h255v-77zM324 779l-37 -52l-151 99l46 63z" />
    <glyph glyph-name="Iacute" unicode="&#xcd;" horiz-adv-x="262" 
d="M177 0h-92v675h92v-675zM243 826l-151 -99l-37 51l143 111z" />
    <glyph glyph-name="Icircumflex" unicode="&#xce;" horiz-adv-x="262" 
d="M177 0h-92v675h92v-675zM273 786l-36 -54l-106 68l-102 -68l-34 52l137 93z" />
    <glyph glyph-name="Idieresis" unicode="&#xcf;" horiz-adv-x="262" 
d="M177 0h-92v675h92v-675zM280 793q0 -22 -15.5 -38t-38.5 -16q-22 0 -38 16t-16 38q0 23 16 38.5t38 15.5q23 0 38.5 -15.5t15.5 -38.5zM88 793q0 -22 -15.5 -38t-38.5 -16q-22 0 -38 16t-16 38q0 23 16 38.5t38 15.5q23 0 38.5 -15.5t15.5 -38.5z" />
    <glyph glyph-name="Igrave" unicode="&#xcc;" horiz-adv-x="262" 
d="M177 0h-92v675h92v-675zM204 778l-37 -51l-151 99l46 63z" />
    <glyph glyph-name="Oacute" unicode="&#xd3;" horiz-adv-x="705" 
d="M663 345q0 -164 -94 -262q-89 -93 -226 -93q-148 0 -227 93q-74 89 -74 247q0 164 94 262q89 93 226 93q139 0 220 -88t81 -252zM565 334q0 129 -55.5 199.5t-157.5 70.5q-89 0 -148 -67q-64 -72 -64 -194q0 -125 52 -196q55 -75 159 -75q89 0 148 66q66 72 66 196z
M486 827l-151 -99l-36 50l142 111z" />
    <glyph glyph-name="Ocircumflex" unicode="&#xd4;" horiz-adv-x="705" 
d="M663 345q0 -164 -94 -262q-89 -93 -226 -93q-148 0 -227 93q-74 89 -74 247q0 164 94 262q89 93 226 93q139 0 220 -88t81 -252zM565 334q0 129 -55.5 199.5t-157.5 70.5q-89 0 -148 -67q-64 -72 -64 -194q0 -125 52 -196q55 -75 159 -75q89 0 148 66q66 72 66 196z
M498 786l-36 -54l-106 68l-102 -68l-33 52l136 93z" />
    <glyph glyph-name="apple" unicode="&#xf000;" horiz-adv-x="1963" 
d="M1553 923l-145 -126q-24 28 -47 46l127 146q37 -32 65 -66zM1756 370l-194 14q2 33 0 67l193 13q4 -45 1 -94zM1028 1167l-13 -193q-38 2 -66 -1l-13 194q23 2 46 2q24 0 46 -2zM603 842q-28 -24 -46 -45l-148 128q31 35 65 65zM1356 417q0 -158 -104 -260v-121l-26 -7
l49 -115l-46 -12l46 -111l-47 -12l16 -39l-46 -105h-79q-5 -29 -43.5 -48.5t-93.5 -19.5t-94 19.5t-43 48.5h-79l-79 188l48 13l-48 116l53 13l-29 71v121q-105 108 -105 260q0 155 110 265t266 110q155 0 264.5 -110t109.5 -265zM403 384l-195 -14q-5 54 0 94l195 -13
q-2 -34 0 -67zM997 446q1 5 0 10h-1q1 -5 0 -10h1zM994 450q0 -2 -3 2q1 1 3 1v1q-4 0 -4 -2q0 2 3 -2q-1 -1 -3 -1v-1q4 0 4 2zM988 448v4q0 3 -4 1v-1q3 2 3 -1q-3 0 -3 -2q0 -1 1 -1t2 1v-1h1zM1280 417q0 124 -87.5 211t-210.5 87q-124 0 -211.5 -87t-87.5 -211
q0 -139 105 -227h93l-26 213q-2 0 -57 -18q-24 -8 -24 37q0 29 12 33q105 31 196 31q92 0 197 -31q12 -4 12 -33q0 -44 -24 -37q-21 9 -61 18l-23 -213h92q105 90 105 227zM982 446q-1 5 0 10h-1q-1 -5 0 -10h1zM978 448v1q-2 -1 -2 2q0 2 2 1v1q-2 -1 -3 -3q0 -4 3 -2z
M973 449v4h-1v-4q-1 -2 -2 0v4h-1v-4q0 -1 2 -1t2 1zM967 448v1h-2v6h-1v-7h3zM1050 413q-27 5 -68 5q-43 0 -70 -5l22 -223h95zM1177 76v52h-391v-86l25 -59zM1182 -51l-27 63l-375 -96l26 -62zM1183 -174l-25 58l-377 -96l40 -97h322l22 51l-9 21l-117 -29l-19 51z
M987 450q-1 -1 -2 -1q1 1 2 1z" />
    <glyph glyph-name="Ograve" unicode="&#xd2;" horiz-adv-x="705" 
d="M663 345q0 -164 -94 -262q-89 -93 -226 -93q-148 0 -227 93q-74 89 -74 247q0 164 94 262q89 93 226 93q139 0 220 -88t81 -252zM565 334q0 129 -55.5 199.5t-157.5 70.5q-89 0 -148 -67q-64 -72 -64 -194q0 -125 52 -196q55 -75 159 -75q89 0 148 66q66 72 66 196z
M421 779l-37 -52l-151 99l46 63z" />
    <glyph glyph-name="Uacute" unicode="&#xda;" horiz-adv-x="693" 
d="M607 258q0 -268 -269 -268q-253 0 -253 237v448h92v-441q0 -79 33 -119q40 -49 134 -49q90 0 131.5 42.5t41.5 142.5v424h90v-417zM466 827l-151 -99l-36 50l142 111z" />
    <glyph glyph-name="Ucircumflex" unicode="&#xdb;" horiz-adv-x="693" 
d="M607 258q0 -268 -269 -268q-253 0 -253 237v448h92v-441q0 -79 33 -119q40 -49 134 -49q90 0 131.5 42.5t41.5 142.5v424h90v-417zM484 786l-36 -54l-106 68l-102 -68l-33 52l136 93z" />
    <glyph glyph-name="Ugrave" unicode="&#xd9;" horiz-adv-x="693" 
d="M607 258q0 -268 -269 -268q-253 0 -253 237v448h92v-441q0 -79 33 -119q40 -49 134 -49q90 0 131.5 42.5t41.5 142.5v424h90v-417zM412 779l-37 -52l-151 99l46 63z" />
    <glyph glyph-name="glyph226" horiz-adv-x="500" 
 />
  </font>
</defs>
</svg>
